<svg width="1110" height="655" viewBox="0 0 1110 655" fill="none" xmlns="http://www.w3.org/2000/svg">
<rect x="593" y="235" width="100" height="100" fill="#538217"/>
<rect x="174" y="448" width="835" height="25" fill="#C4C4C4"/>
<path d="M223.78 465.78C224.7 465.78 225.613 465.473 226.52 464.86L227.32 465.96C226.88 466.347 226.333 466.653 225.68 466.88C225.027 467.107 224.393 467.22 223.78 467.22C222.22 467.22 221 466.733 220.12 465.76C219.253 464.773 218.82 463.447 218.82 461.78C218.82 460.727 219.013 459.78 219.4 458.94C219.8 458.1 220.373 457.44 221.12 456.96C221.867 456.48 222.753 456.24 223.78 456.24C225.14 456.24 226.313 456.653 227.3 457.48L226.48 458.58C225.56 457.967 224.653 457.66 223.76 457.66C222.813 457.66 222.053 458.013 221.48 458.72C220.92 459.413 220.64 460.433 220.64 461.78C220.64 463.127 220.92 464.133 221.48 464.8C222.053 465.453 222.82 465.78 223.78 465.78ZM238.112 456.24C238.539 456.24 239.032 456.313 239.592 456.46L239.352 460.04H237.992V457.78H237.892C236.266 457.78 235.112 458.94 234.432 461.26V465.7H236.572V467H231.092V465.7H232.752V457.76H231.092V456.46H234.012L234.332 458.96C234.759 458.053 235.266 457.373 235.852 456.92C236.452 456.467 237.206 456.24 238.112 456.24ZM247.004 456.24C248.458 456.24 249.571 456.733 250.344 457.72C251.131 458.693 251.524 460.027 251.524 461.72C251.524 463.373 251.124 464.707 250.324 465.72C249.538 466.72 248.424 467.22 246.984 467.22C245.531 467.22 244.411 466.733 243.624 465.76C242.838 464.773 242.444 463.433 242.444 461.74C242.444 460.073 242.838 458.74 243.624 457.74C244.424 456.74 245.551 456.24 247.004 456.24ZM247.004 457.62C246.084 457.62 245.398 457.96 244.944 458.64C244.491 459.32 244.264 460.353 244.264 461.74C244.264 463.127 244.484 464.16 244.924 464.84C245.378 465.507 246.064 465.84 246.984 465.84C247.904 465.84 248.584 465.507 249.024 464.84C249.478 464.16 249.704 463.12 249.704 461.72C249.704 460.333 249.478 459.307 249.024 458.64C248.584 457.96 247.911 457.62 247.004 457.62ZM260.417 467L259.037 459.28L257.557 467H255.237L253.337 456.46H255.037L256.397 465.96L258.077 457.8H260.057L261.637 465.96L262.997 456.46H264.617L262.797 467H260.417ZM266.969 456.46H268.409L268.549 457.94C268.962 457.407 269.482 456.993 270.109 456.7C270.749 456.393 271.389 456.24 272.029 456.24C274.002 456.24 274.989 457.28 274.989 459.36V467H273.309V460.6C273.309 459.813 273.262 459.213 273.169 458.8C273.089 458.387 272.922 458.08 272.669 457.88C272.415 457.68 272.029 457.58 271.509 457.58C270.935 457.58 270.395 457.753 269.889 458.1C269.382 458.447 268.969 458.86 268.649 459.34V467H266.969V456.46ZM294.553 465.84C295.353 465.84 295.986 465.687 296.453 465.38C296.92 465.073 297.153 464.667 297.153 464.16C297.153 463.813 297.093 463.533 296.973 463.32C296.853 463.093 296.613 462.893 296.253 462.72C295.893 462.533 295.346 462.347 294.613 462.16C293.386 461.853 292.48 461.487 291.893 461.06C291.306 460.62 291.013 459.973 291.013 459.12C291.013 458.24 291.38 457.54 292.113 457.02C292.846 456.5 293.813 456.24 295.013 456.24C296.48 456.24 297.76 456.627 298.853 457.4L298.093 458.56C297.653 458.253 297.193 458.02 296.713 457.86C296.233 457.687 295.68 457.6 295.053 457.6C293.533 457.6 292.773 458.06 292.773 458.98C292.773 459.3 292.853 459.56 293.013 459.76C293.186 459.96 293.46 460.14 293.833 460.3C294.22 460.447 294.793 460.627 295.553 460.84C296.7 461.147 297.553 461.54 298.113 462.02C298.686 462.487 298.973 463.173 298.973 464.08C298.973 465.133 298.546 465.92 297.693 466.44C296.84 466.96 295.793 467.22 294.553 467.22C292.9 467.22 291.526 466.747 290.433 465.8L291.373 464.7C291.8 465.047 292.286 465.327 292.833 465.54C293.38 465.74 293.953 465.84 294.553 465.84ZM311.325 466.46C310.965 466.7 310.525 466.887 310.005 467.02C309.499 467.153 308.992 467.22 308.485 467.22C307.379 467.22 306.512 466.933 305.885 466.36C305.259 465.773 304.945 465.007 304.945 464.06V457.78H302.525V456.46H304.945V454.08L306.625 453.88V456.46H310.285L310.065 457.78H306.625V464.04C306.625 464.64 306.785 465.087 307.105 465.38C307.425 465.673 307.939 465.82 308.645 465.82C309.365 465.82 310.039 465.653 310.665 465.32L311.325 466.46ZM317.158 465.46C317.158 464.967 317.324 464.553 317.658 464.22C318.004 463.873 318.424 463.7 318.918 463.7C319.424 463.7 319.844 463.873 320.178 464.22C320.511 464.553 320.678 464.967 320.678 465.46C320.678 465.967 320.511 466.387 320.178 466.72C319.844 467.053 319.424 467.22 318.918 467.22C318.424 467.22 318.004 467.053 317.658 466.72C317.324 466.373 317.158 465.953 317.158 465.46Z" fill="black"/>
<g filter="url(#filter0_d_44_31)">
<rect x="422" y="189" width="458" height="25" transform="rotate(90 422 189)" fill="#C4C4C4"/>
</g>
<path d="M412.08 228.68C412.613 229.093 413.027 229.6 413.32 230.2C413.613 230.8 413.76 231.42 413.76 232.06C413.76 234.033 412.72 235.02 410.64 235.02H403V233.34H410.62C411.247 233.34 411.7 233.193 411.98 232.9C412.273 232.607 412.42 232.14 412.42 231.5C412.42 230.953 412.247 230.427 411.9 229.92C411.553 229.413 411.147 229 410.68 228.68H403V227H417.76L417.94 228.68H412.08ZM418.46 242.992C418.46 243.366 418.347 243.666 418.12 243.892C417.907 244.119 417.627 244.232 417.28 244.232C416.933 244.232 416.647 244.119 416.42 243.892C416.207 243.666 416.1 243.366 416.1 242.992C416.1 242.632 416.207 242.339 416.42 242.112C416.647 241.899 416.933 241.792 417.28 241.792C417.627 241.792 417.907 241.899 418.12 242.112C418.347 242.339 418.46 242.632 418.46 242.992ZM404.34 244.332V247.292H403V239.412H404.34V242.652H412.2V239.512H413.54V244.332H404.34ZM413.06 260.064C412.927 259.664 412.84 259.231 412.8 258.764C412.773 258.298 412.76 257.704 412.76 256.984C412.2 258.211 411.313 258.824 410.1 258.824C409.033 258.824 408.167 258.471 407.5 257.764C406.847 257.058 406.52 256.091 406.52 254.864C406.52 254.238 406.593 253.711 406.74 253.284C406.62 253.124 406.467 252.991 406.28 252.884C406.093 252.791 405.907 252.744 405.72 252.744C405.12 252.744 404.82 253.211 404.82 254.144V256.044C404.82 256.738 404.693 257.364 404.44 257.924C404.2 258.498 403.86 258.944 403.42 259.264C402.98 259.598 402.493 259.764 401.96 259.764C400.933 259.764 400.147 259.324 399.6 258.444C399.04 257.578 398.76 256.344 398.76 254.744C398.76 253.118 399.013 251.971 399.52 251.304C400.027 250.638 400.833 250.304 401.94 250.304V251.824C401.5 251.824 401.153 251.904 400.9 252.064C400.633 252.238 400.44 252.531 400.32 252.944C400.187 253.371 400.12 253.971 400.12 254.744C400.12 255.878 400.267 256.711 400.56 257.244C400.853 257.791 401.287 258.064 401.86 258.064C402.34 258.064 402.713 257.844 402.98 257.404C403.233 256.964 403.36 256.398 403.36 255.704V253.824C403.36 252.958 403.547 252.298 403.92 251.844C404.307 251.391 404.787 251.164 405.36 251.164C405.693 251.164 406.02 251.264 406.34 251.464C406.673 251.664 406.96 251.951 407.2 252.324C407.507 251.724 407.893 251.278 408.36 250.984C408.84 250.704 409.42 250.564 410.1 250.564C410.807 250.564 411.433 250.738 411.98 251.084C412.54 251.444 412.973 251.938 413.28 252.564C413.6 253.204 413.76 253.938 413.76 254.764C413.76 255.964 413.827 256.878 413.96 257.504C414.093 258.131 414.32 258.818 414.64 259.564L413.06 260.064ZM412.52 254.744C412.52 253.931 412.3 253.318 411.86 252.904C411.433 252.491 410.847 252.284 410.1 252.284C409.353 252.284 408.753 252.491 408.3 252.904C407.86 253.331 407.64 253.958 407.64 254.784C407.64 255.531 407.853 256.098 408.28 256.484C408.72 256.884 409.333 257.084 410.12 257.084C411.72 257.084 412.52 256.304 412.52 254.744ZM412.08 264.657C412.613 265.07 413.027 265.577 413.32 266.177C413.613 266.777 413.76 267.397 413.76 268.037C413.76 270.01 412.72 270.997 410.64 270.997H403V269.317H410.62C411.247 269.317 411.7 269.17 411.98 268.877C412.273 268.583 412.42 268.117 412.42 267.477C412.42 266.93 412.247 266.403 411.9 265.897C411.553 265.39 411.147 264.977 410.68 264.657H403V262.977H417.76L417.94 264.657H412.08ZM404.16 290.561C404.16 291.361 404.313 291.994 404.62 292.461C404.927 292.928 405.333 293.161 405.84 293.161C406.187 293.161 406.467 293.101 406.68 292.981C406.907 292.861 407.107 292.621 407.28 292.261C407.467 291.901 407.653 291.354 407.84 290.621C408.147 289.394 408.513 288.488 408.94 287.901C409.38 287.314 410.027 287.021 410.88 287.021C411.76 287.021 412.46 287.388 412.98 288.121C413.5 288.854 413.76 289.821 413.76 291.021C413.76 292.488 413.373 293.768 412.6 294.861L411.44 294.101C411.747 293.661 411.98 293.201 412.14 292.721C412.313 292.241 412.4 291.688 412.4 291.061C412.4 289.541 411.94 288.781 411.02 288.781C410.7 288.781 410.44 288.861 410.24 289.021C410.04 289.194 409.86 289.468 409.7 289.841C409.553 290.228 409.373 290.801 409.16 291.561C408.853 292.708 408.46 293.561 407.98 294.121C407.513 294.694 406.827 294.981 405.92 294.981C404.867 294.981 404.08 294.554 403.56 293.701C403.04 292.848 402.78 291.801 402.78 290.561C402.78 288.908 403.253 287.534 404.2 286.441L405.3 287.381C404.953 287.808 404.673 288.294 404.46 288.841C404.26 289.388 404.16 289.961 404.16 290.561ZM403.54 307.333C403.3 306.973 403.113 306.533 402.98 306.013C402.847 305.506 402.78 305 402.78 304.493C402.78 303.386 403.067 302.52 403.64 301.893C404.227 301.266 404.993 300.953 405.94 300.953H412.22V298.533H413.54V300.953H415.92L416.12 302.633H413.54V306.293L412.22 306.073V302.633H405.96C405.36 302.633 404.913 302.793 404.62 303.113C404.327 303.433 404.18 303.946 404.18 304.653C404.18 305.373 404.347 306.046 404.68 306.673L403.54 307.333ZM404.54 313.165C405.033 313.165 405.447 313.332 405.78 313.665C406.127 314.012 406.3 314.432 406.3 314.925C406.3 315.432 406.127 315.852 405.78 316.185C405.447 316.519 405.033 316.685 404.54 316.685C404.033 316.685 403.613 316.519 403.28 316.185C402.947 315.852 402.78 315.432 402.78 314.925C402.78 314.432 402.947 314.012 403.28 313.665C403.627 313.332 404.047 313.165 404.54 313.165Z" fill="black"/>
<rect x="572" width="647" height="25" transform="rotate(90 572 0)" fill="#C4C4C4"/>
<path d="M554.22 231.78C554.22 232.7 554.527 233.613 555.14 234.52L554.04 235.32C553.653 234.88 553.347 234.333 553.12 233.68C552.893 233.027 552.78 232.393 552.78 231.78C552.78 230.22 553.267 229 554.24 228.12C555.227 227.253 556.553 226.82 558.22 226.82C559.273 226.82 560.22 227.013 561.06 227.4C561.9 227.8 562.56 228.373 563.04 229.12C563.52 229.867 563.76 230.753 563.76 231.78C563.76 233.14 563.347 234.313 562.52 235.3L561.42 234.48C562.033 233.56 562.34 232.653 562.34 231.76C562.34 230.813 561.987 230.053 561.28 229.48C560.587 228.92 559.567 228.64 558.22 228.64C556.873 228.64 555.867 228.92 555.2 229.48C554.547 230.053 554.22 230.82 554.22 231.78ZM563.76 243.012C563.76 244.466 563.267 245.579 562.28 246.352C561.307 247.139 559.973 247.532 558.28 247.532C556.627 247.532 555.293 247.132 554.28 246.332C553.28 245.546 552.78 244.432 552.78 242.992C552.78 241.539 553.267 240.419 554.24 239.632C555.227 238.846 556.567 238.452 558.26 238.452C559.927 238.452 561.26 238.846 562.26 239.632C563.26 240.432 563.76 241.559 563.76 243.012ZM562.38 243.012C562.38 242.092 562.04 241.406 561.36 240.952C560.68 240.499 559.647 240.272 558.26 240.272C556.873 240.272 555.84 240.492 555.16 240.932C554.493 241.386 554.16 242.072 554.16 242.992C554.16 243.912 554.493 244.592 555.16 245.032C555.84 245.486 556.88 245.712 558.28 245.712C559.667 245.712 560.693 245.486 561.36 245.032C562.04 244.592 562.38 243.919 562.38 243.012ZM555.6 255.104C554.653 255.104 554.18 255.684 554.18 256.844C554.18 257.391 554.3 257.978 554.54 258.604L553.32 259.044C552.96 258.378 552.78 257.544 552.78 256.544C552.78 255.598 553.04 254.838 553.56 254.264C554.08 253.704 554.787 253.424 555.68 253.424H566.44V250.184H567.78V255.104H555.6ZM555.6 267.097C554.653 267.097 554.18 267.677 554.18 268.837C554.18 269.383 554.3 269.97 554.54 270.597L553.32 271.037C552.96 270.37 552.78 269.537 552.78 268.537C552.78 267.59 553.04 266.83 553.56 266.257C554.08 265.697 554.787 265.417 555.68 265.417H566.44V262.177H567.78V267.097H555.6ZM557.68 276.309C556.52 276.349 555.647 276.649 555.06 277.209C554.473 277.782 554.18 278.502 554.18 279.369C554.18 279.889 554.253 280.362 554.4 280.789C554.56 281.229 554.8 281.695 555.12 282.189L554 282.969C553.613 282.475 553.313 281.909 553.1 281.269C552.887 280.642 552.78 280.009 552.78 279.369C552.78 277.849 553.273 276.662 554.26 275.809C555.26 274.969 556.593 274.549 558.26 274.549C559.313 274.549 560.253 274.735 561.08 275.109C561.92 275.482 562.573 276.015 563.04 276.709C563.52 277.402 563.76 278.209 563.76 279.129C563.76 280.462 563.293 281.509 562.36 282.269C561.44 283.042 560.18 283.429 558.58 283.429C558.273 283.429 557.973 283.415 557.68 283.389V276.309ZM562.38 279.149C562.38 278.335 562.087 277.675 561.5 277.169C560.927 276.662 560.08 276.375 558.96 276.309V281.789C560.067 281.775 560.913 281.535 561.5 281.069C562.087 280.602 562.38 279.962 562.38 279.149ZM563.06 296.041C562.927 295.641 562.84 295.208 562.8 294.741C562.773 294.274 562.76 293.681 562.76 292.961C562.2 294.188 561.313 294.801 560.1 294.801C559.033 294.801 558.167 294.448 557.5 293.741C556.847 293.034 556.52 292.068 556.52 290.841C556.52 290.214 556.593 289.688 556.74 289.261C556.62 289.101 556.467 288.968 556.28 288.861C556.093 288.768 555.907 288.721 555.72 288.721C555.12 288.721 554.82 289.188 554.82 290.121V292.021C554.82 292.714 554.693 293.341 554.44 293.901C554.2 294.474 553.86 294.921 553.42 295.241C552.98 295.574 552.493 295.741 551.96 295.741C550.933 295.741 550.147 295.301 549.6 294.421C549.04 293.554 548.76 292.321 548.76 290.721C548.76 289.094 549.013 287.948 549.52 287.281C550.027 286.614 550.833 286.281 551.94 286.281V287.801C551.5 287.801 551.153 287.881 550.9 288.041C550.633 288.214 550.44 288.508 550.32 288.921C550.187 289.348 550.12 289.948 550.12 290.721C550.12 291.854 550.267 292.688 550.56 293.221C550.853 293.768 551.287 294.041 551.86 294.041C552.34 294.041 552.713 293.821 552.98 293.381C553.233 292.941 553.36 292.374 553.36 291.681V289.801C553.36 288.934 553.547 288.274 553.92 287.821C554.307 287.368 554.787 287.141 555.36 287.141C555.693 287.141 556.02 287.241 556.34 287.441C556.673 287.641 556.96 287.928 557.2 288.301C557.507 287.701 557.893 287.254 558.36 286.961C558.84 286.681 559.42 286.541 560.1 286.541C560.807 286.541 561.433 286.714 561.98 287.061C562.54 287.421 562.973 287.914 563.28 288.541C563.6 289.181 563.76 289.914 563.76 290.741C563.76 291.941 563.827 292.854 563.96 293.481C564.093 294.108 564.32 294.794 564.64 295.541L563.06 296.041ZM562.52 290.721C562.52 289.908 562.3 289.294 561.86 288.881C561.433 288.468 560.847 288.261 560.1 288.261C559.353 288.261 558.753 288.468 558.3 288.881C557.86 289.308 557.64 289.934 557.64 290.761C557.64 291.508 557.853 292.074 558.28 292.461C558.72 292.861 559.333 293.061 560.12 293.061C561.72 293.061 562.52 292.281 562.52 290.721ZM557.68 300.293C556.52 300.333 555.647 300.633 555.06 301.193C554.473 301.766 554.18 302.486 554.18 303.353C554.18 303.873 554.253 304.346 554.4 304.773C554.56 305.213 554.8 305.68 555.12 306.173L554 306.953C553.613 306.46 553.313 305.893 553.1 305.253C552.887 304.626 552.78 303.993 552.78 303.353C552.78 301.833 553.273 300.646 554.26 299.793C555.26 298.953 556.593 298.533 558.26 298.533C559.313 298.533 560.253 298.72 561.08 299.093C561.92 299.466 562.573 300 563.04 300.693C563.52 301.386 563.76 302.193 563.76 303.113C563.76 304.446 563.293 305.493 562.36 306.253C561.44 307.026 560.18 307.413 558.58 307.413C558.273 307.413 557.973 307.4 557.68 307.373V300.293ZM562.38 303.133C562.38 302.32 562.087 301.66 561.5 301.153C560.927 300.646 560.08 300.36 558.96 300.293V305.773C560.067 305.76 560.913 305.52 561.5 305.053C562.087 304.586 562.38 303.946 562.38 303.133ZM554.16 326.538C554.16 327.338 554.313 327.971 554.62 328.438C554.927 328.904 555.333 329.138 555.84 329.138C556.187 329.138 556.467 329.078 556.68 328.958C556.907 328.838 557.107 328.598 557.28 328.238C557.467 327.878 557.653 327.331 557.84 326.598C558.147 325.371 558.513 324.464 558.94 323.877C559.38 323.291 560.027 322.998 560.88 322.998C561.76 322.998 562.46 323.364 562.98 324.098C563.5 324.831 563.76 325.798 563.76 326.998C563.76 328.464 563.373 329.744 562.6 330.838L561.44 330.078C561.747 329.638 561.98 329.178 562.14 328.698C562.313 328.218 562.4 327.664 562.4 327.038C562.4 325.518 561.94 324.758 561.02 324.758C560.7 324.758 560.44 324.838 560.24 324.998C560.04 325.171 559.86 325.444 559.7 325.818C559.553 326.204 559.373 326.778 559.16 327.538C558.853 328.684 558.46 329.538 557.98 330.098C557.513 330.671 556.827 330.958 555.92 330.958C554.867 330.958 554.08 330.531 553.56 329.678C553.04 328.824 552.78 327.778 552.78 326.538C552.78 324.884 553.253 323.511 554.2 322.418L555.3 323.358C554.953 323.784 554.673 324.271 554.46 324.818C554.26 325.364 554.16 325.938 554.16 326.538ZM553.54 343.31C553.3 342.95 553.113 342.51 552.98 341.99C552.847 341.483 552.78 340.976 552.78 340.47C552.78 339.363 553.067 338.496 553.64 337.87C554.227 337.243 554.993 336.93 555.94 336.93H562.22V334.51H563.54V336.93H565.92L566.12 338.61H563.54V342.27L562.22 342.05V338.61H555.96C555.36 338.61 554.913 338.77 554.62 339.09C554.327 339.41 554.18 339.923 554.18 340.63C554.18 341.35 554.347 342.023 554.68 342.65L553.54 343.31ZM554.54 349.142C555.033 349.142 555.447 349.309 555.78 349.642C556.127 349.989 556.3 350.409 556.3 350.902C556.3 351.409 556.127 351.829 555.78 352.162C555.447 352.495 555.033 352.662 554.54 352.662C554.033 352.662 553.613 352.495 553.28 352.162C552.947 351.829 552.78 351.409 552.78 350.902C552.78 350.409 552.947 349.989 553.28 349.642C553.627 349.309 554.047 349.142 554.54 349.142Z" fill="black"/>
<rect x="739" width="647" height="25" transform="rotate(90 739 0)" fill="#C4C4C4"/>
<path d="M721.22 231.78C721.22 232.7 721.527 233.613 722.14 234.52L721.04 235.32C720.653 234.88 720.347 234.333 720.12 233.68C719.893 233.027 719.78 232.393 719.78 231.78C719.78 230.22 720.267 229 721.24 228.12C722.227 227.253 723.553 226.82 725.22 226.82C726.273 226.82 727.22 227.013 728.06 227.4C728.9 227.8 729.56 228.373 730.04 229.12C730.52 229.867 730.76 230.753 730.76 231.78C730.76 233.14 730.347 234.313 729.52 235.3L728.42 234.48C729.033 233.56 729.34 232.653 729.34 231.76C729.34 230.813 728.987 230.053 728.28 229.48C727.587 228.92 726.567 228.64 725.22 228.64C723.873 228.64 722.867 228.92 722.2 229.48C721.547 230.053 721.22 230.82 721.22 231.78ZM729.08 240.672C729.613 241.086 730.027 241.592 730.32 242.192C730.613 242.792 730.76 243.412 730.76 244.052C730.76 246.026 729.72 247.012 727.64 247.012H720V245.332H727.62C728.247 245.332 728.7 245.186 728.98 244.892C729.273 244.599 729.42 244.132 729.42 243.492C729.42 242.946 729.247 242.419 728.9 241.912C728.553 241.406 728.147 240.992 727.68 240.672H720V238.992H734.76L734.94 240.672H729.08ZM723.06 252.664C722.38 252.664 721.88 252.804 721.56 253.084C721.253 253.378 721.1 253.831 721.1 254.444C721.1 255.004 721.26 255.544 721.58 256.064C721.9 256.584 722.3 256.998 722.78 257.304H730.54V258.984H720V257.544L721.42 257.404C720.9 256.991 720.493 256.478 720.2 255.864C719.92 255.264 719.78 254.651 719.78 254.024C719.78 253.024 720.047 252.264 720.58 251.744C721.113 251.238 721.88 250.984 722.88 250.984H730.54V252.664H723.06ZM730.76 270.097C730.76 270.523 730.687 271.017 730.54 271.577L726.96 271.337V269.977H729.22V269.877C729.22 268.25 728.06 267.097 725.74 266.417H721.3V268.557H720V263.077H721.3V264.737H729.24V263.077H730.54V265.997L728.04 266.317C728.947 266.743 729.627 267.25 730.08 267.837C730.533 268.437 730.76 269.19 730.76 270.097ZM721.22 279.749C721.22 280.669 721.527 281.582 722.14 282.489L721.04 283.289C720.653 282.849 720.347 282.302 720.12 281.649C719.893 280.995 719.78 280.362 719.78 279.749C719.78 278.189 720.267 276.969 721.24 276.089C722.227 275.222 723.553 274.789 725.22 274.789C726.273 274.789 727.22 274.982 728.06 275.369C728.9 275.769 729.56 276.342 730.04 277.089C730.52 277.835 730.76 278.722 730.76 279.749C730.76 281.109 730.347 282.282 729.52 283.269L728.42 282.449C729.033 281.529 729.34 280.622 729.34 279.729C729.34 278.782 728.987 278.022 728.28 277.449C727.587 276.889 726.567 276.609 725.22 276.609C723.873 276.609 722.867 276.889 722.2 277.449C721.547 278.022 721.22 278.789 721.22 279.749ZM729.08 288.641C729.613 289.054 730.027 289.561 730.32 290.161C730.613 290.761 730.76 291.381 730.76 292.021C730.76 293.994 729.72 294.981 727.64 294.981H720V293.301H727.62C728.247 293.301 728.7 293.154 728.98 292.861C729.273 292.568 729.42 292.101 729.42 291.461C729.42 290.914 729.247 290.388 728.9 289.881C728.553 289.374 728.147 288.961 727.68 288.641H720V286.961H734.76L734.94 288.641H729.08ZM721.16 314.545C721.16 315.345 721.313 315.979 721.62 316.445C721.927 316.912 722.333 317.145 722.84 317.145C723.187 317.145 723.467 317.085 723.68 316.965C723.907 316.845 724.107 316.605 724.28 316.245C724.467 315.885 724.653 315.339 724.84 314.605C725.147 313.379 725.513 312.472 725.94 311.885C726.38 311.299 727.027 311.005 727.88 311.005C728.76 311.005 729.46 311.372 729.98 312.105C730.5 312.839 730.76 313.805 730.76 315.005C730.76 316.472 730.373 317.752 729.6 318.845L728.44 318.085C728.747 317.645 728.98 317.185 729.14 316.705C729.313 316.225 729.4 315.672 729.4 315.045C729.4 313.525 728.94 312.765 728.02 312.765C727.7 312.765 727.44 312.845 727.24 313.005C727.04 313.179 726.86 313.452 726.7 313.825C726.553 314.212 726.373 314.785 726.16 315.545C725.853 316.692 725.46 317.545 724.98 318.105C724.513 318.679 723.827 318.965 722.92 318.965C721.867 318.965 721.08 318.539 720.56 317.685C720.04 316.832 719.78 315.785 719.78 314.545C719.78 312.892 720.253 311.519 721.2 310.425L722.3 311.365C721.953 311.792 721.673 312.279 721.46 312.825C721.26 313.372 721.16 313.945 721.16 314.545ZM720.54 331.318C720.3 330.958 720.113 330.518 719.98 329.998C719.847 329.491 719.78 328.984 719.78 328.478C719.78 327.371 720.067 326.504 720.64 325.878C721.227 325.251 721.993 324.938 722.94 324.938H729.22V322.518H730.54V324.938H732.92L733.12 326.618H730.54V330.278L729.22 330.058V326.618H722.96C722.36 326.618 721.913 326.778 721.62 327.098C721.327 327.418 721.18 327.931 721.18 328.638C721.18 329.358 721.347 330.031 721.68 330.658L720.54 331.318ZM721.54 337.15C722.033 337.15 722.447 337.316 722.78 337.65C723.127 337.996 723.3 338.416 723.3 338.91C723.3 339.416 723.127 339.836 722.78 340.17C722.447 340.503 722.033 340.67 721.54 340.67C721.033 340.67 720.613 340.503 720.28 340.17C719.947 339.836 719.78 339.416 719.78 338.91C719.78 338.416 719.947 337.996 720.28 337.65C720.627 337.316 721.047 337.15 721.54 337.15Z" fill="black"/>
<rect x="874" width="647" height="25" transform="rotate(90 874 0)" fill="#C4C4C4"/>
<path d="M865.76 231.02C865.76 232.473 865.267 233.587 864.28 234.36C863.307 235.147 861.973 235.54 860.28 235.54C858.627 235.54 857.293 235.14 856.28 234.34C855.28 233.553 854.78 232.44 854.78 231C854.78 229.547 855.267 228.427 856.24 227.64C857.227 226.853 858.567 226.46 860.26 226.46C861.927 226.46 863.26 226.853 864.26 227.64C865.26 228.44 865.76 229.567 865.76 231.02ZM864.38 231.02C864.38 230.1 864.04 229.413 863.36 228.96C862.68 228.507 861.647 228.28 860.26 228.28C858.873 228.28 857.84 228.5 857.16 228.94C856.493 229.393 856.16 230.08 856.16 231C856.16 231.92 856.493 232.6 857.16 233.04C857.84 233.493 858.88 233.72 860.28 233.72C861.667 233.72 862.693 233.493 863.36 233.04C864.04 232.6 864.38 231.927 864.38 231.02ZM865.76 246.112C865.76 246.539 865.687 247.032 865.54 247.592L861.96 247.352V245.992H864.22V245.892C864.22 244.266 863.06 243.112 860.74 242.432H856.3V244.572H855V239.092H856.3V240.752H864.24V239.092H865.54V242.012L863.04 242.332C863.947 242.759 864.627 243.266 865.08 243.852C865.533 244.452 865.76 245.206 865.76 246.112ZM857.3 258.544C856.887 258.544 856.58 258.611 856.38 258.744C856.193 258.878 856.053 259.098 855.96 259.404L854.76 258.984C854.893 257.958 855.393 257.318 856.26 257.064C855.78 256.691 855.413 256.218 855.16 255.644C854.907 255.084 854.78 254.458 854.78 253.764C854.78 252.711 855.073 251.878 855.66 251.264C856.247 250.664 857.033 250.364 858.02 250.364C859.1 250.364 859.933 250.784 860.52 251.624C861.107 252.478 861.4 253.698 861.4 255.284V256.844H862.26C863.007 256.844 863.54 256.631 863.86 256.204C864.193 255.778 864.36 255.158 864.36 254.344C864.36 253.544 864.18 252.631 863.82 251.604L865.1 251.144C865.54 252.384 865.76 253.538 865.76 254.604C865.76 255.884 865.46 256.858 864.86 257.524C864.26 258.204 863.427 258.544 862.36 258.544H857.3ZM856.04 254.184C856.04 254.704 856.173 255.198 856.44 255.664C856.707 256.144 857.073 256.538 857.54 256.844H860.24V255.324C860.24 254.204 860.053 253.398 859.68 252.904C859.307 252.411 858.76 252.164 858.04 252.164C856.707 252.164 856.04 252.838 856.04 254.184ZM865.54 262.977V264.417L864.06 264.557C864.593 264.97 865.007 265.49 865.3 266.117C865.607 266.757 865.76 267.397 865.76 268.037C865.76 270.01 864.72 270.997 862.64 270.997H855V269.317H861.4C862.187 269.317 862.787 269.27 863.2 269.177C863.613 269.097 863.92 268.93 864.12 268.677C864.32 268.423 864.42 268.037 864.42 267.517C864.42 266.943 864.247 266.403 863.9 265.897C863.553 265.39 863.14 264.977 862.66 264.657H855V262.977H865.54ZM865.06 284.049C864.927 283.649 864.84 283.215 864.8 282.749C864.773 282.282 864.76 281.689 864.76 280.969C864.2 282.195 863.313 282.809 862.1 282.809C861.033 282.809 860.167 282.455 859.5 281.749C858.847 281.042 858.52 280.075 858.52 278.849C858.52 278.222 858.593 277.695 858.74 277.269C858.62 277.109 858.467 276.975 858.28 276.869C858.093 276.775 857.907 276.729 857.72 276.729C857.12 276.729 856.82 277.195 856.82 278.129V280.029C856.82 280.722 856.693 281.349 856.44 281.909C856.2 282.482 855.86 282.929 855.42 283.249C854.98 283.582 854.493 283.749 853.96 283.749C852.933 283.749 852.147 283.309 851.6 282.429C851.04 281.562 850.76 280.329 850.76 278.729C850.76 277.102 851.013 275.955 851.52 275.289C852.027 274.622 852.833 274.289 853.94 274.289V275.809C853.5 275.809 853.153 275.889 852.9 276.049C852.633 276.222 852.44 276.515 852.32 276.929C852.187 277.355 852.12 277.955 852.12 278.729C852.12 279.862 852.267 280.695 852.56 281.229C852.853 281.775 853.287 282.049 853.86 282.049C854.34 282.049 854.713 281.829 854.98 281.389C855.233 280.949 855.36 280.382 855.36 279.689V277.809C855.36 276.942 855.547 276.282 855.92 275.829C856.307 275.375 856.787 275.149 857.36 275.149C857.693 275.149 858.02 275.249 858.34 275.449C858.673 275.649 858.96 275.935 859.2 276.309C859.507 275.709 859.893 275.262 860.36 274.969C860.84 274.689 861.42 274.549 862.1 274.549C862.807 274.549 863.433 274.722 863.98 275.069C864.54 275.429 864.973 275.922 865.28 276.549C865.6 277.189 865.76 277.922 865.76 278.749C865.76 279.949 865.827 280.862 865.96 281.489C866.093 282.115 866.32 282.802 866.64 283.549L865.06 284.049ZM864.52 278.729C864.52 277.915 864.3 277.302 863.86 276.889C863.433 276.475 862.847 276.269 862.1 276.269C861.353 276.269 860.753 276.475 860.3 276.889C859.86 277.315 859.64 277.942 859.64 278.769C859.64 279.515 859.853 280.082 860.28 280.469C860.72 280.869 861.333 281.069 862.12 281.069C863.72 281.069 864.52 280.289 864.52 278.729ZM859.68 288.301C858.52 288.341 857.647 288.641 857.06 289.201C856.473 289.774 856.18 290.494 856.18 291.361C856.18 291.881 856.253 292.354 856.4 292.781C856.56 293.221 856.8 293.688 857.12 294.181L856 294.961C855.613 294.468 855.313 293.901 855.1 293.261C854.887 292.634 854.78 292.001 854.78 291.361C854.78 289.841 855.273 288.654 856.26 287.801C857.26 286.961 858.593 286.541 860.26 286.541C861.313 286.541 862.253 286.728 863.08 287.101C863.92 287.474 864.573 288.008 865.04 288.701C865.52 289.394 865.76 290.201 865.76 291.121C865.76 292.454 865.293 293.501 864.36 294.261C863.44 295.034 862.18 295.421 860.58 295.421C860.273 295.421 859.973 295.408 859.68 295.381V288.301ZM864.38 291.141C864.38 290.328 864.087 289.668 863.5 289.161C862.927 288.654 862.08 288.368 860.96 288.301V293.781C862.067 293.768 862.913 293.528 863.5 293.061C864.087 292.594 864.38 291.954 864.38 291.141ZM856.16 314.545C856.16 315.345 856.313 315.979 856.62 316.445C856.927 316.912 857.333 317.145 857.84 317.145C858.187 317.145 858.467 317.085 858.68 316.965C858.907 316.845 859.107 316.605 859.28 316.245C859.467 315.885 859.653 315.339 859.84 314.605C860.147 313.379 860.513 312.472 860.94 311.885C861.38 311.299 862.027 311.005 862.88 311.005C863.76 311.005 864.46 311.372 864.98 312.105C865.5 312.839 865.76 313.805 865.76 315.005C865.76 316.472 865.373 317.752 864.6 318.845L863.44 318.085C863.747 317.645 863.98 317.185 864.14 316.705C864.313 316.225 864.4 315.672 864.4 315.045C864.4 313.525 863.94 312.765 863.02 312.765C862.7 312.765 862.44 312.845 862.24 313.005C862.04 313.179 861.86 313.452 861.7 313.825C861.553 314.212 861.373 314.785 861.16 315.545C860.853 316.692 860.46 317.545 859.98 318.105C859.513 318.679 858.827 318.965 857.92 318.965C856.867 318.965 856.08 318.539 855.56 317.685C855.04 316.832 854.78 315.785 854.78 314.545C854.78 312.892 855.253 311.519 856.2 310.425L857.3 311.365C856.953 311.792 856.673 312.279 856.46 312.825C856.26 313.372 856.16 313.945 856.16 314.545ZM855.54 331.318C855.3 330.958 855.113 330.518 854.98 329.998C854.847 329.491 854.78 328.984 854.78 328.478C854.78 327.371 855.067 326.504 855.64 325.878C856.227 325.251 856.993 324.938 857.94 324.938H864.22V322.518H865.54V324.938H867.92L868.12 326.618H865.54V330.278L864.22 330.058V326.618H857.96C857.36 326.618 856.913 326.778 856.62 327.098C856.327 327.418 856.18 327.931 856.18 328.638C856.18 329.358 856.347 330.031 856.68 330.658L855.54 331.318ZM856.54 337.15C857.033 337.15 857.447 337.316 857.78 337.65C858.127 337.996 858.3 338.416 858.3 338.91C858.3 339.416 858.127 339.836 857.78 340.17C857.447 340.503 857.033 340.67 856.54 340.67C856.033 340.67 855.613 340.503 855.28 340.17C854.947 339.836 854.78 339.416 854.78 338.91C854.78 338.416 854.947 337.996 855.28 337.65C855.627 337.316 856.047 337.15 856.54 337.15Z" fill="black"/>
<rect x="1009" width="647" height="25" transform="rotate(90 1009 0)" fill="#C4C4C4"/>
<path d="M991.16 230.6C991.16 231.4 991.313 232.033 991.62 232.5C991.927 232.967 992.333 233.2 992.84 233.2C993.187 233.2 993.467 233.14 993.68 233.02C993.907 232.9 994.107 232.66 994.28 232.3C994.467 231.94 994.653 231.393 994.84 230.66C995.147 229.433 995.513 228.527 995.94 227.94C996.38 227.353 997.027 227.06 997.88 227.06C998.76 227.06 999.46 227.427 999.98 228.16C1000.5 228.893 1000.76 229.86 1000.76 231.06C1000.76 232.527 1000.37 233.807 999.6 234.9L998.44 234.14C998.747 233.7 998.98 233.24 999.14 232.76C999.313 232.28 999.4 231.727 999.4 231.1C999.4 229.58 998.94 228.82 998.02 228.82C997.7 228.82 997.44 228.9 997.24 229.06C997.04 229.233 996.86 229.507 996.7 229.88C996.553 230.267 996.373 230.84 996.16 231.6C995.853 232.747 995.46 233.6 994.98 234.16C994.513 234.733 993.827 235.02 992.92 235.02C991.867 235.02 991.08 234.593 990.56 233.74C990.04 232.887 989.78 231.84 989.78 230.6C989.78 228.947 990.253 227.573 991.2 226.48L992.3 227.42C991.953 227.847 991.673 228.333 991.46 228.88C991.26 229.427 991.16 230 991.16 230.6ZM990.54 247.372C990.3 247.012 990.113 246.572 989.98 246.052C989.847 245.546 989.78 245.039 989.78 244.532C989.78 243.426 990.067 242.559 990.64 241.932C991.227 241.306 991.993 240.992 992.94 240.992H999.22V238.572H1000.54V240.992H1002.92L1003.12 242.672H1000.54V246.332L999.22 246.112V242.672H992.96C992.36 242.672 991.913 242.832 991.62 243.152C991.327 243.472 991.18 243.986 991.18 244.692C991.18 245.412 991.347 246.086 991.68 246.712L990.54 247.372ZM992.3 258.544C991.887 258.544 991.58 258.611 991.38 258.744C991.193 258.878 991.053 259.098 990.96 259.404L989.76 258.984C989.893 257.958 990.393 257.318 991.26 257.064C990.78 256.691 990.413 256.218 990.16 255.644C989.907 255.084 989.78 254.458 989.78 253.764C989.78 252.711 990.073 251.878 990.66 251.264C991.247 250.664 992.033 250.364 993.02 250.364C994.1 250.364 994.933 250.784 995.52 251.624C996.107 252.478 996.4 253.698 996.4 255.284V256.844H997.26C998.007 256.844 998.54 256.631 998.86 256.204C999.193 255.778 999.36 255.158 999.36 254.344C999.36 253.544 999.18 252.631 998.82 251.604L1000.1 251.144C1000.54 252.384 1000.76 253.538 1000.76 254.604C1000.76 255.884 1000.46 256.858 999.86 257.524C999.26 258.204 998.427 258.544 997.36 258.544H992.3ZM991.04 254.184C991.04 254.704 991.173 255.198 991.44 255.664C991.707 256.144 992.073 256.538 992.54 256.844H995.24V255.324C995.24 254.204 995.053 253.398 994.68 252.904C994.307 252.411 993.76 252.164 993.04 252.164C991.707 252.164 991.04 252.838 991.04 254.184ZM990.54 271.357C990.3 270.997 990.113 270.557 989.98 270.037C989.847 269.53 989.78 269.023 989.78 268.517C989.78 267.41 990.067 266.543 990.64 265.917C991.227 265.29 991.993 264.977 992.94 264.977H999.22V262.557H1000.54V264.977H1002.92L1003.12 266.657H1000.54V270.317L999.22 270.097V266.657H992.96C992.36 266.657 991.913 266.817 991.62 267.137C991.327 267.457 991.18 267.97 991.18 268.677C991.18 269.397 991.347 270.07 991.68 270.697L990.54 271.357ZM994.68 276.309C993.52 276.349 992.647 276.649 992.06 277.209C991.473 277.782 991.18 278.502 991.18 279.369C991.18 279.889 991.253 280.362 991.4 280.789C991.56 281.229 991.8 281.695 992.12 282.189L991 282.969C990.613 282.475 990.313 281.909 990.1 281.269C989.887 280.642 989.78 280.009 989.78 279.369C989.78 277.849 990.273 276.662 991.26 275.809C992.26 274.969 993.593 274.549 995.26 274.549C996.313 274.549 997.253 274.735 998.08 275.109C998.92 275.482 999.573 276.015 1000.04 276.709C1000.52 277.402 1000.76 278.209 1000.76 279.129C1000.76 280.462 1000.29 281.509 999.36 282.269C998.44 283.042 997.18 283.429 995.58 283.429C995.273 283.429 994.973 283.415 994.68 283.389V276.309ZM999.38 279.149C999.38 278.335 999.087 277.675 998.5 277.169C997.927 276.662 997.08 276.375 995.96 276.309V281.789C997.067 281.775 997.913 281.535 998.5 281.069C999.087 280.602 999.38 279.962 999.38 279.149ZM991.16 302.553C991.16 303.353 991.313 303.986 991.62 304.453C991.927 304.92 992.333 305.153 992.84 305.153C993.187 305.153 993.467 305.093 993.68 304.973C993.907 304.853 994.107 304.613 994.28 304.253C994.467 303.893 994.653 303.346 994.84 302.613C995.147 301.386 995.513 300.48 995.94 299.893C996.38 299.306 997.027 299.013 997.88 299.013C998.76 299.013 999.46 299.38 999.98 300.113C1000.5 300.846 1000.76 301.813 1000.76 303.013C1000.76 304.48 1000.37 305.76 999.6 306.853L998.44 306.093C998.747 305.653 998.98 305.193 999.14 304.713C999.313 304.233 999.4 303.68 999.4 303.053C999.4 301.533 998.94 300.773 998.02 300.773C997.7 300.773 997.44 300.853 997.24 301.013C997.04 301.186 996.86 301.46 996.7 301.833C996.553 302.22 996.373 302.793 996.16 303.553C995.853 304.7 995.46 305.553 994.98 306.113C994.513 306.686 993.827 306.973 992.92 306.973C991.867 306.973 991.08 306.546 990.56 305.693C990.04 304.84 989.78 303.793 989.78 302.553C989.78 300.9 990.253 299.526 991.2 298.433L992.3 299.373C991.953 299.8 991.673 300.286 991.46 300.833C991.26 301.38 991.16 301.953 991.16 302.553ZM990.54 319.325C990.3 318.965 990.113 318.525 989.98 318.005C989.847 317.499 989.78 316.992 989.78 316.485C989.78 315.379 990.067 314.512 990.64 313.885C991.227 313.259 991.993 312.945 992.94 312.945H999.22V310.525H1000.54V312.945H1002.92L1003.12 314.625H1000.54V318.285L999.22 318.065V314.625H992.96C992.36 314.625 991.913 314.785 991.62 315.105C991.327 315.425 991.18 315.939 991.18 316.645C991.18 317.365 991.347 318.039 991.68 318.665L990.54 319.325ZM991.54 325.158C992.033 325.158 992.447 325.324 992.78 325.658C993.127 326.004 993.3 326.424 993.3 326.918C993.3 327.424 993.127 327.844 992.78 328.178C992.447 328.511 992.033 328.678 991.54 328.678C991.033 328.678 990.613 328.511 990.28 328.178C989.947 327.844 989.78 327.424 989.78 326.918C989.78 326.424 989.947 326.004 990.28 325.658C990.627 325.324 991.047 325.158 991.54 325.158Z" fill="black"/>
<rect x="174" y="356" width="835" height="25" fill="#C4C4C4"/>
<path d="M223.78 373.78C224.7 373.78 225.613 373.473 226.52 372.86L227.32 373.96C226.88 374.347 226.333 374.653 225.68 374.88C225.027 375.107 224.393 375.22 223.78 375.22C222.22 375.22 221 374.733 220.12 373.76C219.253 372.773 218.82 371.447 218.82 369.78C218.82 368.727 219.013 367.78 219.4 366.94C219.8 366.1 220.373 365.44 221.12 364.96C221.867 364.48 222.753 364.24 223.78 364.24C225.14 364.24 226.313 364.653 227.3 365.48L226.48 366.58C225.56 365.967 224.653 365.66 223.76 365.66C222.813 365.66 222.053 366.013 221.48 366.72C220.92 367.413 220.64 368.433 220.64 369.78C220.64 371.127 220.92 372.133 221.48 372.8C222.053 373.453 222.82 373.78 223.78 373.78ZM232.672 365.92C233.086 365.387 233.592 364.973 234.192 364.68C234.792 364.387 235.412 364.24 236.052 364.24C238.026 364.24 239.012 365.28 239.012 367.36V375H237.332V367.38C237.332 366.753 237.186 366.3 236.892 366.02C236.599 365.727 236.132 365.58 235.492 365.58C234.946 365.58 234.419 365.753 233.912 366.1C233.406 366.447 232.992 366.853 232.672 367.32V375H230.992V360.24L232.672 360.06V365.92ZM250.544 372.7C250.544 373.113 250.611 373.42 250.744 373.62C250.878 373.807 251.098 373.947 251.404 374.04L250.984 375.24C249.958 375.107 249.318 374.607 249.064 373.74C248.691 374.22 248.218 374.587 247.644 374.84C247.084 375.093 246.458 375.22 245.764 375.22C244.711 375.22 243.878 374.927 243.264 374.34C242.664 373.753 242.364 372.967 242.364 371.98C242.364 370.9 242.784 370.067 243.624 369.48C244.478 368.893 245.698 368.6 247.284 368.6H248.844V367.74C248.844 366.993 248.631 366.46 248.204 366.14C247.778 365.807 247.158 365.64 246.344 365.64C245.544 365.64 244.631 365.82 243.604 366.18L243.144 364.9C244.384 364.46 245.538 364.24 246.604 364.24C247.884 364.24 248.858 364.54 249.524 365.14C250.204 365.74 250.544 366.573 250.544 367.64V372.7ZM246.184 373.96C246.704 373.96 247.198 373.827 247.664 373.56C248.144 373.293 248.538 372.927 248.844 372.46V369.76H247.324C246.204 369.76 245.398 369.947 244.904 370.32C244.411 370.693 244.164 371.24 244.164 371.96C244.164 373.293 244.838 373.96 246.184 373.96ZM259.697 364.24C262.243 364.24 263.517 366.067 263.517 369.72C263.517 371.387 263.17 372.72 262.477 373.72C261.783 374.72 260.777 375.22 259.457 375.22C258.31 375.22 257.377 374.82 256.657 374.02V379.04L254.977 379.24V364.46H256.417L256.557 365.94C256.943 365.393 257.403 364.973 257.937 364.68C258.483 364.387 259.07 364.24 259.697 364.24ZM259.297 365.6C258.763 365.6 258.27 365.76 257.817 366.08C257.377 366.4 256.99 366.8 256.657 367.28V372.5C256.937 372.913 257.283 373.24 257.697 373.48C258.123 373.707 258.583 373.82 259.077 373.82C259.957 373.82 260.61 373.487 261.037 372.82C261.477 372.14 261.697 371.107 261.697 369.72C261.697 368.333 261.503 367.3 261.117 366.62C260.73 365.94 260.123 365.6 259.297 365.6ZM268.309 370.32C268.349 371.48 268.649 372.353 269.209 372.94C269.782 373.527 270.502 373.82 271.369 373.82C271.889 373.82 272.362 373.747 272.789 373.6C273.229 373.44 273.695 373.2 274.189 372.88L274.969 374C274.475 374.387 273.909 374.687 273.269 374.9C272.642 375.113 272.009 375.22 271.369 375.22C269.849 375.22 268.662 374.727 267.809 373.74C266.969 372.74 266.549 371.407 266.549 369.74C266.549 368.687 266.735 367.747 267.109 366.92C267.482 366.08 268.015 365.427 268.709 364.96C269.402 364.48 270.209 364.24 271.129 364.24C272.462 364.24 273.509 364.707 274.269 365.64C275.042 366.56 275.429 367.82 275.429 369.42C275.429 369.727 275.415 370.027 275.389 370.32H268.309ZM271.149 365.62C270.335 365.62 269.675 365.913 269.169 366.5C268.662 367.073 268.375 367.92 268.309 369.04H273.789C273.775 367.933 273.535 367.087 273.069 366.5C272.602 365.913 271.962 365.62 271.149 365.62ZM283.081 372.4C283.081 373.347 283.661 373.82 284.821 373.82C285.368 373.82 285.954 373.7 286.581 373.46L287.021 374.68C286.354 375.04 285.521 375.22 284.521 375.22C283.574 375.22 282.814 374.96 282.241 374.44C281.681 373.92 281.401 373.213 281.401 372.32V361.56H278.161V360.22H283.081V372.4ZM306.545 373.84C307.345 373.84 307.979 373.687 308.445 373.38C308.912 373.073 309.145 372.667 309.145 372.16C309.145 371.813 309.085 371.533 308.965 371.32C308.845 371.093 308.605 370.893 308.245 370.72C307.885 370.533 307.339 370.347 306.605 370.16C305.379 369.853 304.472 369.487 303.885 369.06C303.299 368.62 303.005 367.973 303.005 367.12C303.005 366.24 303.372 365.54 304.105 365.02C304.839 364.5 305.805 364.24 307.005 364.24C308.472 364.24 309.752 364.627 310.845 365.4L310.085 366.56C309.645 366.253 309.185 366.02 308.705 365.86C308.225 365.687 307.672 365.6 307.045 365.6C305.525 365.6 304.765 366.06 304.765 366.98C304.765 367.3 304.845 367.56 305.005 367.76C305.179 367.96 305.452 368.14 305.825 368.3C306.212 368.447 306.785 368.627 307.545 368.84C308.692 369.147 309.545 369.54 310.105 370.02C310.679 370.487 310.965 371.173 310.965 372.08C310.965 373.133 310.539 373.92 309.685 374.44C308.832 374.96 307.785 375.22 306.545 375.22C304.892 375.22 303.519 374.747 302.425 373.8L303.365 372.7C303.792 373.047 304.279 373.327 304.825 373.54C305.372 373.74 305.945 373.84 306.545 373.84ZM323.318 374.46C322.958 374.7 322.518 374.887 321.998 375.02C321.491 375.153 320.984 375.22 320.478 375.22C319.371 375.22 318.504 374.933 317.878 374.36C317.251 373.773 316.938 373.007 316.938 372.06V365.78H314.518V364.46H316.938V362.08L318.618 361.88V364.46H322.278L322.058 365.78H318.618V372.04C318.618 372.64 318.778 373.087 319.098 373.38C319.418 373.673 319.931 373.82 320.638 373.82C321.358 373.82 322.031 373.653 322.658 373.32L323.318 374.46ZM329.15 373.46C329.15 372.967 329.316 372.553 329.65 372.22C329.996 371.873 330.416 371.7 330.91 371.7C331.416 371.7 331.836 371.873 332.17 372.22C332.503 372.553 332.67 372.967 332.67 373.46C332.67 373.967 332.503 374.387 332.17 374.72C331.836 375.053 331.416 375.22 330.91 375.22C330.416 375.22 329.996 375.053 329.65 374.72C329.316 374.373 329.15 373.953 329.15 373.46Z" fill="black"/>
<rect x="174" y="189" width="835" height="25" fill="#C4C4C4"/>
<rect x="12.5" y="92" width="202" height="25" transform="rotate(30 12.5 92)" fill="#C4C4C4"/>
<path d="M23.767 108.362C25.0047 107.845 26.1431 107.886 27.1824 108.486C28.3486 109.159 28.9689 110.072 29.0431 111.223C29.1174 112.375 28.7212 113.701 27.8545 115.202C27.0278 116.634 26.0436 117.605 24.9019 118.116C23.7668 118.615 22.6277 118.535 21.4845 117.875C20.4337 117.268 19.8281 116.411 19.6677 115.302L19.0138 116.194L17.7321 115.454L25.1221 102.655L26.677 103.321L23.767 108.362ZM21.8354 116.507C22.5975 116.947 23.354 116.984 24.1048 116.617C24.8672 116.256 25.5917 115.481 26.2783 114.292C26.9583 113.114 27.2869 112.118 27.2641 111.305C27.2528 110.497 26.8892 109.887 26.1733 109.474C25.7114 109.207 25.2042 109.099 24.6516 109.15C24.1105 109.207 23.5756 109.36 23.047 109.609L20.437 114.129C20.4661 114.639 20.5997 115.101 20.8376 115.515C21.0756 115.93 21.4082 116.261 21.8354 116.507ZM39.6637 115.692C40.0332 115.905 40.4238 116.216 40.8354 116.623L38.8376 119.603L37.6598 118.923L38.7898 116.966L38.7032 116.916C37.2944 116.102 35.7156 116.53 33.9667 118.2L31.7467 122.045L33.6 123.115L32.95 124.241L28.2042 121.501L28.8542 120.375L30.2918 121.205L34.2618 114.329L32.8242 113.499L33.4742 112.373L36.003 113.833L35.0301 116.158C35.853 115.586 36.6317 115.25 37.3665 115.151C38.1128 115.058 38.8785 115.239 39.6637 115.692ZM47.3646 120.138C48.6232 120.865 49.3407 121.849 49.5171 123.09C49.7117 124.326 49.3857 125.678 48.539 127.144C47.7123 128.576 46.6992 129.531 45.4998 130.008C44.3185 130.481 43.1043 130.357 41.8572 129.637C40.5986 128.911 39.872 127.929 39.6774 126.693C39.4894 125.445 39.8188 124.088 40.6655 122.621C41.4988 121.178 42.5061 120.22 43.6874 119.747C44.8802 119.281 46.1059 119.412 47.3646 120.138ZM46.6746 121.333C45.8778 120.873 45.1131 120.824 44.3805 121.187C43.6479 121.549 42.935 122.33 42.2416 123.531C41.5483 124.732 41.2222 125.737 41.2632 126.546C41.3225 127.35 41.7505 127.982 42.5472 128.442C43.344 128.902 44.0995 128.953 44.8139 128.596C45.5465 128.234 46.2628 127.446 46.9628 126.234C47.6562 125.033 47.9732 124.031 47.9139 123.227C47.8729 122.418 47.4597 121.787 46.6746 121.333ZM56.5858 135.231C56.3792 135.589 56.2836 135.888 56.299 136.128C56.3212 136.356 56.4417 136.587 56.6606 136.821L55.6969 137.651C54.8744 137.022 54.5702 136.269 54.7841 135.392C54.2208 135.621 53.6275 135.701 53.0043 135.634C52.3927 135.574 51.7867 135.37 51.1862 135.023C50.274 134.497 49.699 133.826 49.4612 133.011C49.2349 132.203 49.3684 131.372 49.8617 130.517C50.4017 129.582 51.1821 129.07 52.2029 128.982C53.2353 128.901 54.4385 129.257 55.8126 130.05L57.1636 130.83L57.5936 130.085C57.9669 129.439 58.0488 128.87 57.8393 128.38C57.6365 127.878 57.1829 127.423 56.4785 127.017C55.7857 126.617 54.9047 126.316 53.8356 126.114L54.0772 124.776C55.3711 125.015 56.4799 125.401 57.4037 125.934C58.5122 126.574 59.2051 127.321 59.4825 128.174C59.7714 129.033 59.6492 129.925 59.1158 130.849L56.5858 135.231ZM52.1799 134.142C52.6303 134.402 53.1242 134.533 53.6617 134.536C54.2107 134.545 54.7347 134.424 55.2336 134.173L56.5836 131.835L55.2672 131.075C54.2973 130.515 53.5053 130.273 52.8914 130.35C52.2775 130.426 51.7906 130.777 51.4306 131.4C50.7639 132.555 51.0137 133.469 52.1799 134.142ZM73.5924 130.639L66.2024 143.439L64.9207 142.699L65.4721 141.424C64.8706 141.692 64.2838 141.815 63.7117 141.793C63.1395 141.771 62.5994 141.613 62.0914 141.319C60.9367 140.653 60.3082 139.728 60.206 138.545C60.1153 137.369 60.4966 136.042 61.35 134.564C61.8766 133.651 62.491 132.921 63.193 132.371C63.9016 131.811 64.6382 131.481 65.4027 131.384C66.1854 131.282 66.9405 131.44 67.668 131.86C68.6726 132.44 69.2824 133.277 69.4975 134.372L72.2375 129.626L73.5924 130.639ZM67.369 133.258C66.6069 132.818 65.8447 132.778 65.0823 133.139C64.3315 133.506 63.6128 134.284 62.9261 135.474C62.2461 136.651 61.9142 137.653 61.9304 138.478C61.9648 139.299 62.3399 139.916 63.0558 140.329C63.9218 140.829 64.9524 140.777 66.1475 140.174L68.7675 135.636C68.7335 135.108 68.5941 134.643 68.3495 134.24C68.1115 133.825 67.7847 133.498 67.369 133.258ZM74.3709 148.155L77.0358 140.779L71.8941 146.725L69.8849 145.565L73.5095 135.487L74.9817 136.337L71.4095 145.244L76.9444 139.018L78.6592 140.008L75.9475 147.864L81.8753 140.317L83.2782 141.127L76.4321 149.345L74.3709 148.155ZM87.7424 153.219C87.5358 153.577 87.4402 153.876 87.4556 154.116C87.4778 154.344 87.5983 154.575 87.8172 154.81L86.8535 155.639C86.031 155.01 85.7268 154.257 85.9407 153.38C85.3774 153.609 84.7842 153.69 84.161 153.622C83.5493 153.562 82.9433 153.358 82.3428 153.012C81.4306 152.485 80.8556 151.814 80.6178 150.999C80.3915 150.191 80.525 149.36 81.0183 148.506C81.5583 147.57 82.3387 147.059 83.3595 146.971C84.3919 146.889 85.5951 147.245 86.9692 148.038L88.3202 148.818L88.7502 148.074C89.1235 147.427 89.2054 146.859 88.9959 146.368C88.7931 145.866 88.3395 145.412 87.6351 145.005C86.9423 144.605 86.0613 144.304 84.9922 144.103L85.2338 142.764C86.5277 143.003 87.6365 143.389 88.5603 143.923C89.6688 144.563 90.3617 145.309 90.6391 146.162C90.928 147.022 90.8058 147.913 90.2724 148.837L87.7424 153.219ZM83.3366 152.13C83.7869 152.39 84.2808 152.522 84.8183 152.524C85.3673 152.533 85.8913 152.412 86.3902 152.161L87.7402 149.823L86.4238 149.063C85.4539 148.503 84.662 148.261 84.0481 148.338C83.4341 148.415 82.9472 148.765 82.5872 149.388C81.9205 150.543 82.1703 151.457 83.3366 152.13ZM94.8002 160.019C93.8356 160.863 92.8615 161.417 91.878 161.681C90.8945 161.944 89.8093 161.81 88.6226 161.279L89.0847 159.999C89.7567 160.248 90.335 160.366 90.8197 160.354C91.3092 160.359 91.7512 160.26 92.1457 160.057C92.5335 159.865 92.9607 159.565 93.4273 159.157L92.9423 158.877L95.0426 147.919L96.5842 148.809L94.5696 158.339L101.78 151.809L103.287 152.679L94.8002 160.019ZM114.9 170.215C115.592 170.615 116.218 170.799 116.775 170.766C117.333 170.734 117.738 170.499 117.991 170.06C118.165 169.76 118.253 169.487 118.255 169.242C118.265 168.986 118.157 168.693 117.932 168.363C117.713 168.021 117.333 167.586 116.792 167.058C115.883 166.179 115.281 165.408 114.986 164.745C114.698 164.071 114.767 163.364 115.194 162.625C115.634 161.863 116.301 161.44 117.196 161.356C118.092 161.273 119.059 161.531 120.098 162.131C121.368 162.864 122.283 163.839 122.844 165.055L121.605 165.68C121.378 165.194 121.096 164.762 120.76 164.384C120.431 163.994 119.995 163.642 119.453 163.329C118.136 162.569 117.248 162.587 116.788 163.384C116.628 163.661 116.567 163.926 116.606 164.179C116.656 164.439 116.803 164.732 117.046 165.057C117.308 165.377 117.714 165.82 118.266 166.385C119.105 167.224 119.648 167.991 119.893 168.687C120.156 169.377 120.061 170.115 119.607 170.901C119.081 171.813 118.318 172.281 117.319 172.304C116.32 172.328 115.283 172.03 114.21 171.41C112.778 170.583 111.825 169.487 111.352 168.12L112.716 167.637C112.912 168.151 113.193 168.637 113.56 169.095C113.933 169.541 114.38 169.915 114.9 170.215ZM129.115 179.138C128.683 179.166 128.209 179.107 127.692 178.963C127.186 178.825 126.714 178.629 126.275 178.376C125.317 177.823 124.71 177.141 124.454 176.331C124.204 175.51 124.316 174.689 124.789 173.869L127.929 168.431L125.834 167.221L126.494 166.078L128.589 167.288L129.779 165.226L131.334 165.893L130.044 168.128L133.214 169.958L132.364 170.991L129.384 169.271L126.254 174.692C125.954 175.212 125.87 175.678 126 176.092C126.131 176.506 126.502 176.89 127.114 177.244C127.737 177.604 128.404 177.796 129.113 177.82L129.115 179.138ZM134.666 181.188C134.912 180.761 135.263 180.486 135.719 180.364C136.192 180.237 136.643 180.297 137.07 180.544C137.509 180.797 137.786 181.157 137.901 181.624C138.023 182.079 137.961 182.521 137.714 182.948C137.461 183.387 137.106 183.667 136.651 183.789C136.196 183.911 135.749 183.845 135.31 183.592C134.883 183.345 134.602 182.991 134.469 182.529C134.353 182.062 134.419 181.615 134.666 181.188Z" fill="black"/>
<path d="M231.34 205.32C231.38 206.48 231.68 207.353 232.24 207.94C232.813 208.527 233.533 208.82 234.4 208.82C234.92 208.82 235.393 208.747 235.82 208.6C236.26 208.44 236.727 208.2 237.22 207.88L238 209C237.507 209.387 236.94 209.687 236.3 209.9C235.673 210.113 235.04 210.22 234.4 210.22C232.88 210.22 231.693 209.727 230.84 208.74C230 207.74 229.58 206.407 229.58 204.74C229.58 203.687 229.767 202.747 230.14 201.92C230.513 201.08 231.047 200.427 231.74 199.96C232.433 199.48 233.24 199.24 234.16 199.24C235.493 199.24 236.54 199.707 237.3 200.64C238.073 201.56 238.46 202.82 238.46 204.42C238.46 204.727 238.447 205.027 238.42 205.32H231.34ZM234.18 200.62C233.367 200.62 232.707 200.913 232.2 201.5C231.693 202.073 231.407 202.92 231.34 204.04H236.82C236.807 202.933 236.567 202.087 236.1 201.5C235.633 200.913 234.993 200.62 234.18 200.62ZM246.112 207.4C246.112 208.347 246.692 208.82 247.852 208.82C248.399 208.82 248.986 208.7 249.612 208.46L250.052 209.68C249.386 210.04 248.552 210.22 247.552 210.22C246.606 210.22 245.846 209.96 245.272 209.44C244.712 208.92 244.432 208.213 244.432 207.32V196.56H241.192V195.22H246.112V207.4ZM260.924 199.24C261.524 199.24 262.011 199.453 262.384 199.88C262.771 200.293 262.964 201.053 262.964 202.16V210H261.424V202.44C261.424 201.707 261.378 201.213 261.284 200.96C261.191 200.693 260.964 200.56 260.604 200.56C259.924 200.56 259.311 200.98 258.764 201.82V210H257.204V202.44C257.204 201.707 257.158 201.213 257.064 200.96C256.971 200.693 256.744 200.56 256.384 200.56C255.704 200.56 255.091 200.98 254.544 201.82V210H253.004V199.46H254.304L254.424 200.7C254.744 200.233 255.078 199.873 255.424 199.62C255.784 199.367 256.211 199.24 256.704 199.24C257.691 199.24 258.324 199.707 258.604 200.64C258.924 200.187 259.264 199.84 259.624 199.6C259.984 199.36 260.418 199.24 260.924 199.24ZM281.569 208.84C282.369 208.84 283.002 208.687 283.469 208.38C283.935 208.073 284.169 207.667 284.169 207.16C284.169 206.813 284.109 206.533 283.989 206.32C283.869 206.093 283.629 205.893 283.269 205.72C282.909 205.533 282.362 205.347 281.629 205.16C280.402 204.853 279.495 204.487 278.909 204.06C278.322 203.62 278.029 202.973 278.029 202.12C278.029 201.24 278.395 200.54 279.129 200.02C279.862 199.5 280.829 199.24 282.029 199.24C283.495 199.24 284.775 199.627 285.869 200.4L285.109 201.56C284.669 201.253 284.209 201.02 283.729 200.86C283.249 200.687 282.695 200.6 282.069 200.6C280.549 200.6 279.789 201.06 279.789 201.98C279.789 202.3 279.869 202.56 280.029 202.76C280.202 202.96 280.475 203.14 280.849 203.3C281.235 203.447 281.809 203.627 282.569 203.84C283.715 204.147 284.569 204.54 285.129 205.02C285.702 205.487 285.989 206.173 285.989 207.08C285.989 208.133 285.562 208.92 284.709 209.44C283.855 209.96 282.809 210.22 281.569 210.22C279.915 210.22 278.542 209.747 277.449 208.8L278.389 207.7C278.815 208.047 279.302 208.327 279.849 208.54C280.395 208.74 280.969 208.84 281.569 208.84ZM298.341 209.46C297.981 209.7 297.541 209.887 297.021 210.02C296.514 210.153 296.008 210.22 295.501 210.22C294.394 210.22 293.528 209.933 292.901 209.36C292.274 208.773 291.961 208.007 291.961 207.06V200.78H289.541V199.46H291.961V197.08L293.641 196.88V199.46H297.301L297.081 200.78H293.641V207.04C293.641 207.64 293.801 208.087 294.121 208.38C294.441 208.673 294.954 208.82 295.661 208.82C296.381 208.82 297.054 208.653 297.681 208.32L298.341 209.46ZM304.173 208.46C304.173 207.967 304.34 207.553 304.673 207.22C305.02 206.873 305.44 206.7 305.933 206.7C306.44 206.7 306.86 206.873 307.193 207.22C307.526 207.553 307.693 207.967 307.693 208.46C307.693 208.967 307.526 209.387 307.193 209.72C306.86 210.053 306.44 210.22 305.933 210.22C305.44 210.22 305.02 210.053 304.673 209.72C304.34 209.373 304.173 208.953 304.173 208.46Z" fill="black"/>
<circle cx="944" cy="362" r="10" fill="#FF3939"/>
<path d="M961.2 349.14V342.84H960.1V342.48H961.2V339.9L964.92 338.98V342.48H967.52V342.84H964.92V349.58C964.92 350.207 964.98 350.667 965.1 350.96C965.233 351.253 965.5 351.4 965.9 351.4C966.3 351.4 966.647 351.2 966.94 350.8C967.247 350.4 967.447 349.853 967.54 349.16L967.88 349.2C967.773 350.12 967.48 350.853 967 351.4C966.52 351.933 965.727 352.2 964.62 352.2C963.513 352.2 962.667 351.98 962.08 351.54C961.493 351.1 961.2 350.3 961.2 349.14ZM973.331 352.2C971.611 352.2 970.318 351.76 969.451 350.88C968.598 349.987 968.171 348.753 968.171 347.18C968.171 345.593 968.651 344.38 969.611 343.54C970.584 342.7 971.818 342.28 973.311 342.28C976.338 342.28 977.791 343.8 977.671 346.84H972.031V347.62C972.031 348.927 972.198 349.913 972.531 350.58C972.864 351.247 973.444 351.58 974.271 351.58C975.818 351.58 976.831 350.753 977.311 349.1L977.671 349.16C977.418 350.12 976.958 350.867 976.291 351.4C975.638 351.933 974.651 352.2 973.331 352.2ZM972.051 346.44H974.111V345.46C974.111 344.38 974.044 343.647 973.911 343.26C973.791 342.86 973.538 342.66 973.151 342.66C972.778 342.66 972.498 342.873 972.311 343.3C972.138 343.713 972.051 344.433 972.051 345.46V346.44ZM978.424 342.48H983.244V344.32C983.457 343.707 983.784 343.213 984.224 342.84C984.664 342.467 985.33 342.28 986.224 342.28C988.29 342.28 989.324 343.393 989.324 345.62V351.64H990.444V352H984.784V351.64H985.604V345.14C985.604 344.34 985.55 343.827 985.444 343.6C985.337 343.36 985.144 343.24 984.864 343.24C984.437 343.24 984.057 343.52 983.724 344.08C983.404 344.64 983.244 345.32 983.244 346.12V351.64H984.104V352H978.424V351.64H979.524V342.84H978.424V342.48ZM994.762 352.2V348.62H995.002C995.348 349.78 995.815 350.593 996.402 351.06C996.988 351.527 997.722 351.76 998.602 351.76C999.962 351.76 1000.64 351.327 1000.64 350.46C1000.64 350.087 1000.47 349.807 1000.14 349.62C999.622 349.327 998.955 349.1 998.142 348.94C997.235 348.7 996.475 348.38 995.862 347.98C995.128 347.5 994.762 346.74 994.762 345.7C994.762 344.66 995.082 343.833 995.722 343.22C996.362 342.593 997.215 342.28 998.282 342.28C998.935 342.28 999.608 342.433 1000.3 342.74C1000.55 342.847 1000.75 342.9 1000.88 342.9C1001.01 342.9 1001.13 342.853 1001.22 342.76C1001.31 342.667 1001.43 342.493 1001.56 342.24H1001.78V345.3H1001.54C1000.86 343.567 999.808 342.7 998.382 342.7C997.755 342.7 997.288 342.813 996.982 343.04C996.675 343.253 996.522 343.527 996.522 343.86C996.522 344.06 996.568 344.22 996.662 344.34C996.755 344.447 996.828 344.527 996.882 344.58C996.935 344.633 997.022 344.693 997.142 344.76C997.262 344.813 997.362 344.86 997.442 344.9C997.522 344.927 997.642 344.967 997.802 345.02C997.975 345.073 998.102 345.107 998.182 345.12C999.088 345.347 999.742 345.547 1000.14 345.72C1000.54 345.88 1000.92 346.08 1001.28 346.32C1002.01 346.827 1002.38 347.647 1002.38 348.78C1002.38 349.9 1002.05 350.753 1001.38 351.34C1000.71 351.913 999.802 352.2 998.642 352.2C997.815 352.2 997.015 352.007 996.242 351.62C996.082 351.513 995.955 351.46 995.862 351.46C995.568 351.46 995.282 351.707 995.002 352.2H994.762ZM1008.23 352.2C1006.51 352.2 1005.22 351.76 1004.35 350.88C1003.5 349.987 1003.07 348.753 1003.07 347.18C1003.07 345.593 1003.55 344.38 1004.51 343.54C1005.49 342.7 1006.72 342.28 1008.21 342.28C1011.24 342.28 1012.69 343.8 1012.57 346.84H1006.93V347.62C1006.93 348.927 1007.1 349.913 1007.43 350.58C1007.77 351.247 1008.35 351.58 1009.17 351.58C1010.72 351.58 1011.73 350.753 1012.21 349.1L1012.57 349.16C1012.32 350.12 1011.86 350.867 1011.19 351.4C1010.54 351.933 1009.55 352.2 1008.23 352.2ZM1006.95 346.44H1009.01V345.46C1009.01 344.38 1008.95 343.647 1008.81 343.26C1008.69 342.86 1008.44 342.66 1008.05 342.66C1007.68 342.66 1007.4 342.873 1007.21 343.3C1007.04 343.713 1006.95 344.433 1006.95 345.46V346.44ZM1018.89 342.64C1018.3 342.64 1017.88 342.96 1017.63 343.6C1017.37 344.24 1017.25 345.3 1017.25 346.78V347.82C1017.25 349.14 1017.39 350.087 1017.69 350.66C1017.98 351.233 1018.52 351.52 1019.31 351.52C1020.09 351.52 1020.72 351.253 1021.19 350.72C1021.65 350.187 1021.95 349.58 1022.09 348.9L1022.45 348.94C1022.19 350.087 1021.73 350.913 1021.05 351.42C1020.35 351.94 1019.4 352.2 1018.19 352.2C1016.64 352.2 1015.45 351.787 1014.63 350.96C1013.8 350.12 1013.39 348.9 1013.39 347.3C1013.39 345.687 1013.85 344.447 1014.79 343.58C1015.73 342.713 1017.05 342.28 1018.73 342.28C1019.91 342.28 1020.82 342.513 1021.45 342.98C1022.07 343.433 1022.39 344.007 1022.39 344.7C1022.39 345.393 1022.23 345.9 1021.93 346.22C1021.63 346.54 1021.22 346.7 1020.69 346.7C1020.17 346.7 1019.75 346.56 1019.43 346.28C1019.11 346 1018.95 345.587 1018.95 345.04C1018.95 344.8 1018.98 344.56 1019.05 344.32H1019.71C1019.8 344.053 1019.85 343.813 1019.85 343.6C1019.85 342.96 1019.53 342.64 1018.89 342.64ZM1029.41 348.06V346.36C1029.41 345.067 1029.34 344.127 1029.19 343.54C1029.06 342.94 1028.74 342.64 1028.23 342.64C1027.94 342.64 1027.7 342.727 1027.51 342.9C1027.34 343.06 1027.21 343.333 1027.13 343.72C1027.01 344.32 1026.95 345.233 1026.95 346.46V348.02C1026.95 349.473 1026.99 350.347 1027.07 350.64C1027.17 350.933 1027.26 351.173 1027.35 351.36C1027.5 351.68 1027.79 351.84 1028.21 351.84C1028.73 351.84 1029.07 351.54 1029.23 350.94C1029.35 350.513 1029.41 349.553 1029.41 348.06ZM1028.17 352.2C1026.51 352.2 1025.25 351.773 1024.39 350.92C1023.54 350.067 1023.11 348.847 1023.11 347.26C1023.11 345.66 1023.57 344.433 1024.47 343.58C1025.39 342.713 1026.68 342.28 1028.33 342.28C1029.99 342.28 1031.22 342.68 1032.03 343.48C1032.85 344.267 1033.25 345.473 1033.25 347.1C1033.25 350.5 1031.56 352.2 1028.17 352.2ZM1033.85 342.48H1038.67V344.32C1038.89 343.707 1039.21 343.213 1039.65 342.84C1040.09 342.467 1040.76 342.28 1041.65 342.28C1043.72 342.28 1044.75 343.393 1044.75 345.62V351.64H1045.87V352H1040.21V351.64H1041.03V345.14C1041.03 344.34 1040.98 343.827 1040.87 343.6C1040.77 343.36 1040.57 343.24 1040.29 343.24C1039.87 343.24 1039.49 343.52 1039.15 344.08C1038.83 344.64 1038.67 345.32 1038.67 346.12V351.64H1039.53V352H1033.85V351.64H1034.95V342.84H1033.85V342.48ZM1050.2 347.86C1050.2 349.26 1050.27 350.193 1050.42 350.66C1050.56 351.113 1050.83 351.34 1051.22 351.34C1051.62 351.34 1051.96 351.167 1052.24 350.82C1052.53 350.473 1052.68 349.96 1052.68 349.28V344.92C1052.68 344.347 1052.56 343.86 1052.34 343.46C1052.11 343.06 1051.78 342.86 1051.34 342.86C1050.9 342.86 1050.6 343.153 1050.44 343.74C1050.28 344.327 1050.2 345.353 1050.2 346.82V347.86ZM1052.94 352L1052.72 350.6C1052.26 351.667 1051.34 352.2 1049.96 352.2C1048.81 352.2 1047.92 351.787 1047.28 350.96C1046.65 350.133 1046.34 348.9 1046.34 347.26C1046.34 343.94 1047.66 342.28 1050.3 342.28C1051.47 342.28 1052.24 342.607 1052.62 343.26V337.36H1051.4V337H1056.4V351.64H1057.38V352H1052.94ZM1058.16 352.2V348.62H1058.4C1058.75 349.78 1059.21 350.593 1059.8 351.06C1060.39 351.527 1061.12 351.76 1062 351.76C1063.36 351.76 1064.04 351.327 1064.04 350.46C1064.04 350.087 1063.87 349.807 1063.54 349.62C1063.02 349.327 1062.35 349.1 1061.54 348.94C1060.63 348.7 1059.87 348.38 1059.26 347.98C1058.53 347.5 1058.16 346.74 1058.16 345.7C1058.16 344.66 1058.48 343.833 1059.12 343.22C1059.76 342.593 1060.61 342.28 1061.68 342.28C1062.33 342.28 1063.01 342.433 1063.7 342.74C1063.95 342.847 1064.15 342.9 1064.28 342.9C1064.41 342.9 1064.53 342.853 1064.62 342.76C1064.71 342.667 1064.83 342.493 1064.96 342.24H1065.18V345.3H1064.94C1064.26 343.567 1063.21 342.7 1061.78 342.7C1061.15 342.7 1060.69 342.813 1060.38 343.04C1060.07 343.253 1059.92 343.527 1059.92 343.86C1059.92 344.06 1059.97 344.22 1060.06 344.34C1060.15 344.447 1060.23 344.527 1060.28 344.58C1060.33 344.633 1060.42 344.693 1060.54 344.76C1060.66 344.813 1060.76 344.86 1060.84 344.9C1060.92 344.927 1061.04 344.967 1061.2 345.02C1061.37 345.073 1061.5 345.107 1061.58 345.12C1062.49 345.347 1063.14 345.547 1063.54 345.72C1063.94 345.88 1064.32 346.08 1064.68 346.32C1065.41 346.827 1065.78 347.647 1065.78 348.78C1065.78 349.9 1065.45 350.753 1064.78 351.34C1064.11 351.913 1063.2 352.2 1062.04 352.2C1061.21 352.2 1060.41 352.007 1059.64 351.62C1059.48 351.513 1059.35 351.46 1059.26 351.46C1058.97 351.46 1058.68 351.707 1058.4 352.2H1058.16Z" fill="black"/>
<rect x="874" width="647" height="25" transform="rotate(90 874 0)" fill="#C4C4C4"/>
<path d="M865.76 231.02C865.76 232.473 865.267 233.587 864.28 234.36C863.307 235.147 861.973 235.54 860.28 235.54C858.627 235.54 857.293 235.14 856.28 234.34C855.28 233.553 854.78 232.44 854.78 231C854.78 229.547 855.267 228.427 856.24 227.64C857.227 226.853 858.567 226.46 860.26 226.46C861.927 226.46 863.26 226.853 864.26 227.64C865.26 228.44 865.76 229.567 865.76 231.02ZM864.38 231.02C864.38 230.1 864.04 229.413 863.36 228.96C862.68 228.507 861.647 228.28 860.26 228.28C858.873 228.28 857.84 228.5 857.16 228.94C856.493 229.393 856.16 230.08 856.16 231C856.16 231.92 856.493 232.6 857.16 233.04C857.84 233.493 858.88 233.72 860.28 233.72C861.667 233.72 862.693 233.493 863.36 233.04C864.04 232.6 864.38 231.927 864.38 231.02ZM865.76 246.112C865.76 246.539 865.687 247.032 865.54 247.592L861.96 247.352V245.992H864.22V245.892C864.22 244.266 863.06 243.112 860.74 242.432H856.3V244.572H855V239.092H856.3V240.752H864.24V239.092H865.54V242.012L863.04 242.332C863.947 242.759 864.627 243.266 865.08 243.852C865.533 244.452 865.76 245.206 865.76 246.112ZM857.3 258.544C856.887 258.544 856.58 258.611 856.38 258.744C856.193 258.878 856.053 259.098 855.96 259.404L854.76 258.984C854.893 257.958 855.393 257.318 856.26 257.064C855.78 256.691 855.413 256.218 855.16 255.644C854.907 255.084 854.78 254.458 854.78 253.764C854.78 252.711 855.073 251.878 855.66 251.264C856.247 250.664 857.033 250.364 858.02 250.364C859.1 250.364 859.933 250.784 860.52 251.624C861.107 252.478 861.4 253.698 861.4 255.284V256.844H862.26C863.007 256.844 863.54 256.631 863.86 256.204C864.193 255.778 864.36 255.158 864.36 254.344C864.36 253.544 864.18 252.631 863.82 251.604L865.1 251.144C865.54 252.384 865.76 253.538 865.76 254.604C865.76 255.884 865.46 256.858 864.86 257.524C864.26 258.204 863.427 258.544 862.36 258.544H857.3ZM856.04 254.184C856.04 254.704 856.173 255.198 856.44 255.664C856.707 256.144 857.073 256.538 857.54 256.844H860.24V255.324C860.24 254.204 860.053 253.398 859.68 252.904C859.307 252.411 858.76 252.164 858.04 252.164C856.707 252.164 856.04 252.838 856.04 254.184ZM865.54 262.977V264.417L864.06 264.557C864.593 264.97 865.007 265.49 865.3 266.117C865.607 266.757 865.76 267.397 865.76 268.037C865.76 270.01 864.72 270.997 862.64 270.997H855V269.317H861.4C862.187 269.317 862.787 269.27 863.2 269.177C863.613 269.097 863.92 268.93 864.12 268.677C864.32 268.423 864.42 268.037 864.42 267.517C864.42 266.943 864.247 266.403 863.9 265.897C863.553 265.39 863.14 264.977 862.66 264.657H855V262.977H865.54ZM865.06 284.049C864.927 283.649 864.84 283.215 864.8 282.749C864.773 282.282 864.76 281.689 864.76 280.969C864.2 282.195 863.313 282.809 862.1 282.809C861.033 282.809 860.167 282.455 859.5 281.749C858.847 281.042 858.52 280.075 858.52 278.849C858.52 278.222 858.593 277.695 858.74 277.269C858.62 277.109 858.467 276.975 858.28 276.869C858.093 276.775 857.907 276.729 857.72 276.729C857.12 276.729 856.82 277.195 856.82 278.129V280.029C856.82 280.722 856.693 281.349 856.44 281.909C856.2 282.482 855.86 282.929 855.42 283.249C854.98 283.582 854.493 283.749 853.96 283.749C852.933 283.749 852.147 283.309 851.6 282.429C851.04 281.562 850.76 280.329 850.76 278.729C850.76 277.102 851.013 275.955 851.52 275.289C852.027 274.622 852.833 274.289 853.94 274.289V275.809C853.5 275.809 853.153 275.889 852.9 276.049C852.633 276.222 852.44 276.515 852.32 276.929C852.187 277.355 852.12 277.955 852.12 278.729C852.12 279.862 852.267 280.695 852.56 281.229C852.853 281.775 853.287 282.049 853.86 282.049C854.34 282.049 854.713 281.829 854.98 281.389C855.233 280.949 855.36 280.382 855.36 279.689V277.809C855.36 276.942 855.547 276.282 855.92 275.829C856.307 275.375 856.787 275.149 857.36 275.149C857.693 275.149 858.02 275.249 858.34 275.449C858.673 275.649 858.96 275.935 859.2 276.309C859.507 275.709 859.893 275.262 860.36 274.969C860.84 274.689 861.42 274.549 862.1 274.549C862.807 274.549 863.433 274.722 863.98 275.069C864.54 275.429 864.973 275.922 865.28 276.549C865.6 277.189 865.76 277.922 865.76 278.749C865.76 279.949 865.827 280.862 865.96 281.489C866.093 282.115 866.32 282.802 866.64 283.549L865.06 284.049ZM864.52 278.729C864.52 277.915 864.3 277.302 863.86 276.889C863.433 276.475 862.847 276.269 862.1 276.269C861.353 276.269 860.753 276.475 860.3 276.889C859.86 277.315 859.64 277.942 859.64 278.769C859.64 279.515 859.853 280.082 860.28 280.469C860.72 280.869 861.333 281.069 862.12 281.069C863.72 281.069 864.52 280.289 864.52 278.729ZM859.68 288.301C858.52 288.341 857.647 288.641 857.06 289.201C856.473 289.774 856.18 290.494 856.18 291.361C856.18 291.881 856.253 292.354 856.4 292.781C856.56 293.221 856.8 293.688 857.12 294.181L856 294.961C855.613 294.468 855.313 293.901 855.1 293.261C854.887 292.634 854.78 292.001 854.78 291.361C854.78 289.841 855.273 288.654 856.26 287.801C857.26 286.961 858.593 286.541 860.26 286.541C861.313 286.541 862.253 286.728 863.08 287.101C863.92 287.474 864.573 288.008 865.04 288.701C865.52 289.394 865.76 290.201 865.76 291.121C865.76 292.454 865.293 293.501 864.36 294.261C863.44 295.034 862.18 295.421 860.58 295.421C860.273 295.421 859.973 295.408 859.68 295.381V288.301ZM864.38 291.141C864.38 290.328 864.087 289.668 863.5 289.161C862.927 288.654 862.08 288.368 860.96 288.301V293.781C862.067 293.768 862.913 293.528 863.5 293.061C864.087 292.594 864.38 291.954 864.38 291.141ZM856.16 314.545C856.16 315.345 856.313 315.979 856.62 316.445C856.927 316.912 857.333 317.145 857.84 317.145C858.187 317.145 858.467 317.085 858.68 316.965C858.907 316.845 859.107 316.605 859.28 316.245C859.467 315.885 859.653 315.339 859.84 314.605C860.147 313.379 860.513 312.472 860.94 311.885C861.38 311.299 862.027 311.005 862.88 311.005C863.76 311.005 864.46 311.372 864.98 312.105C865.5 312.839 865.76 313.805 865.76 315.005C865.76 316.472 865.373 317.752 864.6 318.845L863.44 318.085C863.747 317.645 863.98 317.185 864.14 316.705C864.313 316.225 864.4 315.672 864.4 315.045C864.4 313.525 863.94 312.765 863.02 312.765C862.7 312.765 862.44 312.845 862.24 313.005C862.04 313.179 861.86 313.452 861.7 313.825C861.553 314.212 861.373 314.785 861.16 315.545C860.853 316.692 860.46 317.545 859.98 318.105C859.513 318.679 858.827 318.965 857.92 318.965C856.867 318.965 856.08 318.539 855.56 317.685C855.04 316.832 854.78 315.785 854.78 314.545C854.78 312.892 855.253 311.519 856.2 310.425L857.3 311.365C856.953 311.792 856.673 312.279 856.46 312.825C856.26 313.372 856.16 313.945 856.16 314.545ZM855.54 331.318C855.3 330.958 855.113 330.518 854.98 329.998C854.847 329.491 854.78 328.984 854.78 328.478C854.78 327.371 855.067 326.504 855.64 325.878C856.227 325.251 856.993 324.938 857.94 324.938H864.22V322.518H865.54V324.938H867.92L868.12 326.618H865.54V330.278L864.22 330.058V326.618H857.96C857.36 326.618 856.913 326.778 856.62 327.098C856.327 327.418 856.18 327.931 856.18 328.638C856.18 329.358 856.347 330.031 856.68 330.658L855.54 331.318ZM856.54 337.15C857.033 337.15 857.447 337.316 857.78 337.65C858.127 337.996 858.3 338.416 858.3 338.91C858.3 339.416 858.127 339.836 857.78 340.17C857.447 340.503 857.033 340.67 856.54 340.67C856.033 340.67 855.613 340.503 855.28 340.17C854.947 339.836 854.78 339.416 854.78 338.91C854.78 338.416 854.947 337.996 855.28 337.65C855.627 337.316 856.047 337.15 856.54 337.15Z" fill="black"/>
<defs>
<filter id="filter0_d_44_31" x="393" y="189" width="33" height="466" filterUnits="userSpaceOnUse" color-interpolation-filters="sRGB">
<feFlood flood-opacity="0" result="BackgroundImageFix"/>
<feColorMatrix in="SourceAlpha" type="matrix" values="0 0 0 0 0 0 0 0 0 0 0 0 0 0 0 0 0 0 127 0" result="hardAlpha"/>
<feOffset dy="4"/>
<feGaussianBlur stdDeviation="2"/>
<feComposite in2="hardAlpha" operator="out"/>
<feColorMatrix type="matrix" values="0 0 0 0 0 0 0 0 0 0 0 0 0 0 0 0 0 0 0.25 0"/>
<feBlend mode="normal" in2="BackgroundImageFix" result="effect1_dropShadow_44_31"/>
<feBlend mode="normal" in="SourceGraphic" in2="effect1_dropShadow_44_31" result="shape"/>
</filter>
</defs>
</svg>
