<svg xmlns="http://www.w3.org/2000/svg" viewBox="0 0 2317 1536"><filter id="b"><feGaussianBlur stdDeviation="12" /></filter><path d="M0 0h2317v1536H0z" fill="#73826c" /><g filter="url(#b)" transform="scale(9.050781) translate(0.5 0.5)"><g transform="translate(128.407784 145.363992) rotate(95.241132) scale(46.438392 78.985482)"><ellipse fill="#dad3b7" fill-opacity=".501961" cx="0" cy="0" rx="1" ry="1" /></g><ellipse fill="#02250e" fill-opacity=".501961" cx="17" cy="23" rx="42" ry="89" /><ellipse fill="#25342b" fill-opacity=".501961" cx="245" cy="53" rx="22" ry="60" /><g transform="translate(114.157467 54.670667) rotate(84.425342) scale(30.946959 88.583199)"><ellipse fill="#94aea1" fill-opacity=".501961" cx="0" cy="0" rx="1" ry="1" /></g><path fill="#000007" fill-opacity=".501961" d="M31.256473 97.005871 36.744043 135.927332 32.025456 127.224467 94.249067 100.92359z" /><g transform="translate(149.194384 0.000000) rotate(255.361517) scale(17.368875 92.522733)"><ellipse fill="#2b562a" fill-opacity=".501961" cx="0" cy="0" rx="1" ry="1" /></g><g transform="translate(188.303831 96.871408) rotate(197.789489) scale(45.164890 40.343617)"><ellipse fill="#78624b" fill-opacity=".501961" cx="0" cy="0" rx="1" ry="1" /></g><path fill="#473621" fill-opacity=".501961" d="M72.621714 84.386812 98.28284 86.218555 36.443944 154.950549 82.803461 123.509423z" /></g></svg>