<svg xmlns="http://www.w3.org/2000/svg" viewBox="0 0 4608 3456"><filter id="b"><feGaussianBlur stdDeviation="12" /></filter><path d="M0 0h4608v3456H0z" fill="#9da39a" /><g filter="url(#b)" transform="scale(18.000000) translate(0.5 0.5)"><g transform="translate(155.939019 97.795811) rotate(265.945749) scale(39.605887 164.475468)"><ellipse fill="#1b211d" fill-opacity=".501961" cx="0" cy="0" rx="1" ry="1" /></g><ellipse fill="#fff" fill-opacity=".501961" cx="31" cy="12" rx="71" ry="71" /><g transform="translate(121.353147 181.492555) rotate(270.337460) scale(48.801675 174.403610)"><ellipse fill="#ffffe8" fill-opacity=".501961" cx="0" cy="0" rx="1" ry="1" /></g><g transform="translate(254.133318 57.565062) rotate(262.349391) scale(81.972962 25.915172)"><ellipse fill="#001000" fill-opacity=".501961" cx="0" cy="0" rx="1" ry="1" /></g><g transform="translate(147.948152 5.332658) rotate(92.852491) scale(43.368328 76.388505)"><ellipse fill="#d7ffff" fill-opacity=".501961" cx="0" cy="0" rx="1" ry="1" /></g><ellipse fill="#7093b5" fill-opacity=".501961" cx="176" cy="76" rx="64" ry="30" /><g transform="translate(79.119522 92.719903) rotate(222.784960) scale(25.671014 52.958023)"><ellipse fill="#382d07" fill-opacity=".501961" cx="0" cy="0" rx="1" ry="1" /></g><ellipse fill="#131300" fill-opacity=".501961" cx="212" cy="129" rx="245" ry="4" /></g></svg>