<svg xmlns="http://www.w3.org/2000/svg" viewBox="0 0 4608 3456"><filter id="b"><feGaussianBlur stdDeviation="12" /></filter><path d="M0 0h4608v3456H0z" fill="#678784" /><g filter="url(#b)" transform="scale(18.000000) translate(0.5 0.5)"><g transform="translate(155.605385 42.266512) rotate(167.636240) scale(112.087447 72.235172)"><ellipse fill="#dff" fill-opacity=".501961" cx="0" cy="0" rx="1" ry="1" /></g><g transform="translate(131 174) rotate(356) scale(255 118)"><path d="M0 0h4608v3456H0z" fill="#000" /></g><ellipse fill="#000" fill-opacity=".501961" cx="16" cy="103" rx="28" ry="57" /><g transform="translate(53.573721 12.824563) rotate(190.139935) scale(114.933279 43.070732)"><ellipse fill="#5fc4e2" fill-opacity=".501961" cx="0" cy="0" rx="1" ry="1" /></g><g transform="translate(185.060714 58.213223) rotate(111.908133) scale(62.617668 37.256483)"><ellipse fill="#dceee8" fill-opacity=".501961" cx="0" cy="0" rx="1" ry="1" /></g><g transform="translate(227.219765 139.946307) rotate(413.971741) scale(47.705110 35.057426)"><ellipse fill="#070f05" fill-opacity=".501961" cx="0" cy="0" rx="1" ry="1" /></g><g transform="translate(76.216694 103.615520) rotate(100.885492) scale(21.533769 41.147607)"><ellipse fill="#c6d9c0" fill-opacity=".501961" cx="0" cy="0" rx="1" ry="1" /></g><ellipse fill="#456e6c" fill-opacity=".501961" cx="125" cy="175" rx="70" ry="23" /></g></svg>