<svg xmlns="http://www.w3.org/2000/svg" viewBox="0 0 4318 3084"><filter id="b"><feGaussianBlur stdDeviation="12" /></filter><path d="M0 0h4318v3084H0z" fill="#657455" /><g filter="url(#b)" transform="scale(16.867188) translate(0.5 0.5)"><g transform="translate(126.400289 0.000000) rotate(184.438266) scale(165.793460 44.171991)"><ellipse fill="#fff" fill-opacity=".501961" cx="0" cy="0" rx="1" ry="1" /></g><g transform="translate(99.032395 137.228211) rotate(268.987073) scale(43.404417 245.206049)"><ellipse fill="#101900" fill-opacity=".501961" cx="0" cy="0" rx="1" ry="1" /></g><g transform="translate(155.895653 15.483254) rotate(1.306685) scale(189.214752 23.880352)"><ellipse fill="#f5ffff" fill-opacity=".501961" cx="0" cy="0" rx="1" ry="1" /></g><ellipse fill="#fff" fill-opacity=".501961" cx="209" cy="89" rx="204" ry="6" /><g transform="translate(20.087879 58.441841) rotate(181.410592) scale(169.018002 24.913804)"><ellipse fill="#1b3300" fill-opacity=".501961" cx="0" cy="0" rx="1" ry="1" /></g><path fill="#d7f8ff" fill-opacity=".501961" d="M-6-1 195 58 271-2z" /><path fill="#153100" fill-opacity=".501961" d="M271 83 150 79l94-38z" /><ellipse fill="#1c1e01" fill-opacity=".501961" cx="67" cy="116" rx="210" ry="23" /></g></svg>