<svg xmlns="http://www.w3.org/2000/svg" viewBox="0 0 2048 1463"><filter id="b"><feGaussianBlur stdDeviation="12" /></filter><path d="M0 0h2048v1463H0z" fill="#325659" /><g filter="url(#b)" transform="scale(8.000000) translate(0.5 0.5)"><path fill="#5289ae" fill-opacity=".501961" d="M142 20-7 160l246 37z" /><g transform="translate(32.401977 40.674956) rotate(132.468495) scale(118.393455 52.349573)"><ellipse fill="#031600" fill-opacity=".501961" cx="0" cy="0" rx="1" ry="1" /></g><g transform="translate(208.138015 37.247437) rotate(165.042674) scale(18.557023 122.482548)"><ellipse fill="#0d2102" fill-opacity=".501961" cx="0" cy="0" rx="1" ry="1" /></g><path d="M0 0h2048v1463H0z" fill="#000" /><path d="M0 0h2048v1463H0z" fill="#0c0400" /><path d="M0 0h2048v1463H0z" fill="#c8d9db" /><g transform="translate(196.001541 47.584568) rotate(110.660295) scale(7.612999 95.217589)"><ellipse fill="#000" fill-opacity=".501961" cx="0" cy="0" rx="1" ry="1" /></g><path fill="#fff" fill-opacity=".501961" d="M88.689985-4.192825 88.186952-1.38341 148.895968.343663 148.102996 12.234255z" /></g></svg>