<svg xmlns="http://www.w3.org/2000/svg" viewBox="0 0 2048 1463"><filter id="b"><feGaussianBlur stdDeviation="12" /></filter><path d="M0 0h2048v1463H0z" fill="#475948" /><g filter="url(#b)" transform="scale(8.000000) translate(0.5 0.5)"><g transform="translate(155.317372 133.628498) rotate(101.272784) scale(28.891462 56.353312)"><ellipse fill="#b1a9c3" fill-opacity=".501961" cx="0" cy="0" rx="1" ry="1" /></g><g transform="translate(0.000000 56.750504) rotate(369.134809) scale(82.576574 54.993231)"><ellipse fill="#001500" fill-opacity=".501961" cx="0" cy="0" rx="1" ry="1" /></g><g transform="translate(207.621993 172.104531) rotate(167.008366) scale(80.427489 18.989334)"><ellipse fill="#002e00" fill-opacity=".501961" cx="0" cy="0" rx="1" ry="1" /></g><g transform="translate(53.168257 181.000000) rotate(82.642769) scale(28.349632 47.507802)"><ellipse fill="#8893ba" fill-opacity=".501961" cx="0" cy="0" rx="1" ry="1" /></g><g transform="translate(152.986399 0.000000) rotate(341.308799) scale(69.660688 38.030466)"><ellipse fill="#6da46f" fill-opacity=".501961" cx="0" cy="0" rx="1" ry="1" /></g><g transform="translate(130.656005 70.229899) rotate(159.342674) scale(102.019299 16.397295)"><ellipse fill="#28321d" fill-opacity=".501961" cx="0" cy="0" rx="1" ry="1" /></g><g transform="translate(182.716698 78.385153) rotate(166.299703) scale(33.743881 13.023409)"><ellipse fill="#95839f" fill-opacity=".501961" cx="0" cy="0" rx="1" ry="1" /></g><path d="M0 0h2048v1463H0z" fill="#928ca4" /></g></svg>