<svg xmlns="http://www.w3.org/2000/svg" viewBox="0 0 2048 1536"><filter id="b"><feGaussianBlur stdDeviation="12" /></filter><path d="M0 0h2048v1536H0z" fill="#334b34" /><g filter="url(#b)" transform="scale(8.000000) translate(0.5 0.5)"><g transform="translate(66.417621 58.500868) rotate(100.106297) scale(32.974111 53.146604)"><ellipse fill="#d6d1e5" fill-opacity=".501961" cx="0" cy="0" rx="1" ry="1" /></g><g transform="translate(207.102291 30.122309) rotate(103.606851) scale(47.215327 116.285633)"><ellipse fill="#000e00" fill-opacity=".501961" cx="0" cy="0" rx="1" ry="1" /></g><path fill="#dcf2f4" fill-opacity=".501961" d="M60 76 20 87 38 21z" /><ellipse fill="#11151c" fill-opacity=".501961" cx="236" cy="118" rx="99" ry="33" /><ellipse fill="#000" fill-opacity=".501961" cx="61" cy="40" rx="4" ry="53" /><path fill="#6278ac" fill-opacity=".501961" d="M152.191219 85.685855 194.786304 67.69901 194.489696 84.95006 177.060966 132.123837z" /><path fill="#e5e6e1" fill-opacity=".501961" d="M17.300833 51.915944-4.450068 17.192439 13.031268 19.121504-16 51.889321z" /><g transform="translate(86 140) rotate(332) scale(77 39)"><path d="M0 0h2048v1536H0z" fill="#5a833d" /></g></g></svg>