<svg xmlns="http://www.w3.org/2000/svg" viewBox="0 0 4608 3456"><filter id="b"><feGaussianBlur stdDeviation="12" /></filter><path d="M0 0h4608v3456H0z" fill="#3d462e" /><g filter="url(#b)" transform="scale(18.000000) translate(0.5 0.5)"><ellipse fill="#fff" fill-opacity=".501961" cx="174" cy="180" rx="65" ry="65" /><ellipse fill="#ffc3a0" fill-opacity=".501961" cx="164" cy="78" rx="20" ry="35" /><ellipse fill="#fcfff6" fill-opacity=".501961" cx="179" cy="153" rx="57" ry="29" /><g transform="translate(61.405524 70.479980) rotate(282.323955) scale(156.984988 82.428978)"><ellipse fill="#000400" fill-opacity=".501961" cx="0" cy="0" rx="1" ry="1" /></g><g transform="translate(245.545080 79.530051) rotate(62.659846) scale(144.578093 44.526058)"><ellipse fill="#000a00" fill-opacity=".501961" cx="0" cy="0" rx="1" ry="1" /></g><g transform="translate(178.619566 112.497378) rotate(240.067588) scale(20.322153 29.106042)"><ellipse fill="#5e2e01" fill-opacity=".501961" cx="0" cy="0" rx="1" ry="1" /></g><path fill="#e4ffff" fill-opacity=".501961" d="M124.652715 193.630165 101.083393 207l19.80489-63.88808L145.691886 112.305583z" /><g transform="translate(215.213766 184.246415) rotate(74.225156) scale(61.748278 23.485012)"><ellipse fill="#dff7f5" fill-opacity=".501961" cx="0" cy="0" rx="1" ry="1" /></g></g></svg>