<svg xmlns="http://www.w3.org/2000/svg" viewBox="0 0 4461 3186"><filter id="b"><feGaussianBlur stdDeviation="12" /></filter><path d="M0 0h4461v3186H0z" fill="#3c5135" /><g filter="url(#b)" transform="scale(17.425781) translate(0.5 0.5)"><g transform="translate(75.837720 91.888870) rotate(275.104824) scale(20.635235 32.050709)"><ellipse fill="#cbd8df" fill-opacity=".501961" cx="0" cy="0" rx="1" ry="1" /></g><g transform="translate(189.812143 88.445877) rotate(37.536307) scale(17.864079 41.978221)"><ellipse fill="#c1adac" fill-opacity=".501961" cx="0" cy="0" rx="1" ry="1" /></g><g transform="translate(97.780630 151.375625) rotate(261.425331) scale(22.963254 255.000000)"><ellipse fill="#0f0d11" fill-opacity=".501961" cx="0" cy="0" rx="1" ry="1" /></g><g transform="translate(115.833317 36.353596) rotate(269.030959) scale(14.985048 87.980745)"><ellipse fill="#5a963b" fill-opacity=".501961" cx="0" cy="0" rx="1" ry="1" /></g><path fill="#f9ebde" fill-opacity=".501961" d="M161.564187 84.461064 155.010927 107.26395 194.290146 88.2839 157.073695 89.41895z" /><g transform="translate(24.787505 19.982608) rotate(14.405696) scale(24.682792 96.187306)"><ellipse fill="#154b06" fill-opacity=".501961" cx="0" cy="0" rx="1" ry="1" /></g><path fill="#fff" fill-opacity=".501961" d="M194.931922 65.341014 214.404891 79.137271 209.068092 59.591403 201.118289 55.754004z" /><path fill="#989c89" fill-opacity=".501961" d="M127 112 109 59 35 78z" /></g></svg>