<svg xmlns="http://www.w3.org/2000/svg" viewBox="0 0 4430 3164"><filter id="b"><feGaussianBlur stdDeviation="12" /></filter><path d="M0 0h4430v3164H0z" fill="#495d51" /><g filter="url(#b)" transform="scale(17.304688) translate(0.5 0.5)"><g transform="translate(123.790405 123.603680) rotate(92.699162) scale(65.590817 40.196834)"><ellipse fill="#b9c7f7" fill-opacity=".501961" cx="0" cy="0" rx="1" ry="1" /></g><g transform="translate(199.385372 60.646728) rotate(287.441676) scale(29.056130 148.840127)"><ellipse fill="#000e00" fill-opacity=".501961" cx="0" cy="0" rx="1" ry="1" /></g><g transform="translate(45 113) rotate(180) scale(119 22)"><path d="M0 0h4430v3164H0z" fill="#aaeaff" /></g><ellipse fill="#315b00" fill-opacity=".501961" cx="26" cy="32" rx="97" ry="72" /><ellipse fill="#000" fill-opacity=".501961" cx="32" cy="141" rx="67" ry="17" /><ellipse fill="#8ea1cb" fill-opacity=".501961" cx="90" cy="168" rx="255" ry="12" /><g transform="translate(220.734059 139.565053) rotate(88.891281) scale(16.253186 64.349070)"><ellipse fill="#000003" fill-opacity=".501961" cx="0" cy="0" rx="1" ry="1" /></g><path d="M0 0h4430v3164H0z" fill="#6db7fa" /></g></svg>