<svg xmlns="http://www.w3.org/2000/svg" viewBox="0 0 4608 3291"><filter id="b"><feGaussianBlur stdDeviation="12" /></filter><path d="M0 0h4608v3291H0z" fill="#6b6762" /><g filter="url(#b)" transform="scale(18.000000) translate(0.5 0.5)"><g transform="translate(48.101850 73.703607) rotate(86.622232) scale(32.187319 114.002323)"><ellipse fill="#d2d0c7" fill-opacity=".501961" cx="0" cy="0" rx="1" ry="1" /></g><g transform="translate(224 69) rotate(189) scale(74 56)"><path d="M0 0h4608v3291H0z" fill="#d6dcdf" /></g><g transform="translate(170.965784 153.262831) rotate(112.778941) scale(50.660907 79.624550)"><ellipse fill="#23221f" fill-opacity=".501961" cx="0" cy="0" rx="1" ry="1" /></g><g transform="translate(223.488204 5.662358) rotate(256.651749) scale(39.054202 25.845855)"><ellipse fill="#000" fill-opacity=".501961" cx="0" cy="0" rx="1" ry="1" /></g><ellipse fill="#000" fill-opacity=".501961" cx="19" cy="6" rx="54" ry="12" /><path fill="#320c00" fill-opacity=".501961" d="M125.748321 88.732522 164.011372-16H136.272213L114.89467 73.414099z" /><ellipse fill="#000" fill-opacity=".501961" cx="30" cy="35" rx="95" ry="4" /><path fill="#552104" fill-opacity=".501961" d="M204 160 172-16 155 114z" /></g></svg>