<svg xmlns="http://www.w3.org/2000/svg" viewBox="0 0 3759 2819"><filter id="b"><feGaussianBlur stdDeviation="12" /></filter><path d="M0 0h3759v2819H0z" fill="#7a7d75" /><g filter="url(#b)" transform="scale(14.683594) translate(0.5 0.5)"><g transform="translate(54.974780 26.865687) rotate(190.045727) scale(124.359320 35.042209)"><ellipse fill="#fff" fill-opacity=".501961" cx="0" cy="0" rx="1" ry="1" /></g><path fill="#000" fill-opacity=".501961" d="M252-16l19 204-166-85z" /><g transform="translate(91.175592 170.534473) rotate(83.732662) scale(35.656025 100.615447)"><ellipse fill="#ffeee0" fill-opacity=".501961" cx="0" cy="0" rx="1" ry="1" /></g><g transform="translate(39.949355 96.659534) rotate(82.766878) scale(39.668473 71.156991)"><ellipse fill="#020f08" fill-opacity=".501961" cx="0" cy="0" rx="1" ry="1" /></g><g transform="translate(61.105596 18.291854) rotate(287.880092) scale(26.639444 143.384659)"><ellipse fill="#fff" fill-opacity=".501961" cx="0" cy="0" rx="1" ry="1" /></g><g transform="translate(192.076736 0.000000) rotate(288.789019) scale(25.281861 149.401860)"><ellipse fill="#000" fill-opacity=".501961" cx="0" cy="0" rx="1" ry="1" /></g><g transform="translate(132 17) rotate(41) scale(33 20)"><path d="M0 0h3759v2819H0z" fill="#214532" /></g><g transform="translate(52.301090 18.769953) rotate(161.636229) scale(71.480133 32.109361)"><ellipse fill="#fff" fill-opacity=".501961" cx="0" cy="0" rx="1" ry="1" /></g></g></svg>