<svg xmlns="http://www.w3.org/2000/svg" viewBox="0 0 4597 3448"><filter id="b"><feGaussianBlur stdDeviation="12" /></filter><path d="M0 0h4597v3448H0z" fill="#565655" /><g filter="url(#b)" transform="scale(17.957031) translate(0.5 0.5)"><g transform="translate(243.195340 0.539638) rotate(284.965205) scale(61.827095 24.525479)"><ellipse fill="#fff" fill-opacity=".501961" cx="0" cy="0" rx="1" ry="1" /></g><ellipse fill="#f5ffff" fill-opacity=".501961" cx="138" cy="122" rx="21" ry="29" /><g transform="translate(11.325755 59.947319) rotate(60.420794) scale(83.423020 52.228796)"><ellipse fill="#1e0d08" fill-opacity=".501961" cx="0" cy="0" rx="1" ry="1" /></g><g transform="translate(246.879020 104.199515) rotate(352.241319) scale(43.695604 20.367213)"><ellipse fill="#000" fill-opacity=".501961" cx="0" cy="0" rx="1" ry="1" /></g><ellipse fill="#fff" fill-opacity=".501961" cx="250" cy="9" rx="36" ry="28" /><path fill="#1a1508" fill-opacity=".501961" d="M93 112l11-85 56 57z" /><g transform="translate(202.060173 163.023971) rotate(249.845118) scale(28.910771 44.819540)"><ellipse fill="#5b7a98" fill-opacity=".501961" cx="0" cy="0" rx="1" ry="1" /></g><path d="M0 0h4597v3448H0z" fill="#070600" /></g></svg>