<svg xmlns="http://www.w3.org/2000/svg" viewBox="0 0 4134 2952"><filter id="b"><feGaussianBlur stdDeviation="12" /></filter><path d="M0 0h4134v2952H0z" fill="#5c7168" /><g filter="url(#b)" transform="scale(16.148438) translate(0.5 0.5)"><g transform="translate(60.908517 47.493140) rotate(204.038414) scale(58.025642 43.125194)"><ellipse fill="#d6e6dd" fill-opacity=".501961" cx="0" cy="0" rx="1" ry="1" /></g><path fill="#000b00" fill-opacity=".501961" d="M253-16l7 146L78-16z" /><path fill="#efffff" fill-opacity=".501961" d="M104 27 208 137 179 61z" /><path fill="#fbf9ff" fill-opacity=".501961" d="M136 180l106 17 29-37z" /><g transform="translate(48.807757 173.811729) rotate(172.042451) scale(113.935867 27.117690)"><ellipse fill="#233014" fill-opacity=".501961" cx="0" cy="0" rx="1" ry="1" /></g><g transform="translate(62.546558 74.529106) rotate(137.287064) scale(14.785139 46.794294)"><ellipse fill="#e2e9f6" fill-opacity=".501961" cx="0" cy="0" rx="1" ry="1" /></g><path fill="#87b1ec" fill-opacity=".501961" d="M146 129l68 8-48-82z" /><g transform="translate(218.301609 77.806445) rotate(359.385573) scale(29.615779 44.422715)"><ellipse fill="#0e4824" fill-opacity=".501961" cx="0" cy="0" rx="1" ry="1" /></g></g></svg>