<svg xmlns="http://www.w3.org/2000/svg" viewBox="0 0 4089 2921"><filter id="b"><feGaussianBlur stdDeviation="12" /></filter><path d="M0 0h4089v2921H0z" fill="#879390" /><g filter="url(#b)" transform="scale(15.972656) translate(0.5 0.5)"><g transform="translate(174.489761 152.422246) rotate(-3.118840) scale(255.000000 37.651797)"><ellipse fill="#100c00" fill-opacity=".501961" cx="0" cy="0" rx="1" ry="1" /></g><g transform="translate(101.456399 36.853165) rotate(179.577584) scale(153.727647 57.336695)"><ellipse fill="#eef9ff" fill-opacity=".501961" cx="0" cy="0" rx="1" ry="1" /></g><g transform="translate(217.283355 36.869602) rotate(102.486497) scale(66.064685 48.901782)"><ellipse fill="#829cbb" fill-opacity=".501961" cx="0" cy="0" rx="1" ry="1" /></g><path fill="#383d00" fill-opacity=".501961" d="M-16 139l287 28-165 30z" /><g transform="translate(90.690049 25.024207) rotate(338.189826) scale(85.828297 28.591918)"><ellipse fill="#edebeb" fill-opacity=".501961" cx="0" cy="0" rx="1" ry="1" /></g><ellipse fill="#73a3cf" fill-opacity=".501961" cx="38" cy="104" rx="144" ry="22" /><g transform="translate(231.097579 118.985977) rotate(265.627963) scale(9.694186 70.611392)"><ellipse fill="#051700" fill-opacity=".501961" cx="0" cy="0" rx="1" ry="1" /></g><ellipse fill="#012747" fill-opacity=".501961" cx="13" cy="126" rx="43" ry="6" /></g></svg>