<svg xmlns="http://www.w3.org/2000/svg" viewBox="0 0 4608 3456"><filter id="b"><feGaussianBlur stdDeviation="12" /></filter><path d="M0 0h4608v3456H0z" fill="#63624e" /><g filter="url(#b)" transform="scale(18.000000) translate(0.5 0.5)"><g transform="translate(63.719638 0.000000) rotate(294.527249) scale(24.390359 88.196668)"><ellipse fill="#fff" fill-opacity=".501961" cx="0" cy="0" rx="1" ry="1" /></g><g transform="translate(229.806288 170.134513) rotate(301.553861) scale(33.572458 49.401270)"><ellipse fill="#fff8d9" fill-opacity=".501961" cx="0" cy="0" rx="1" ry="1" /></g><g transform="translate(0.000000 89.140591) rotate(252.791081) scale(248.549557 35.499282)"><ellipse fill="#000" fill-opacity=".501961" cx="0" cy="0" rx="1" ry="1" /></g><g transform="translate(121.267627 191.000000) rotate(386.747301) scale(34.487231 120.606751)"><ellipse fill="#000002" fill-opacity=".501961" cx="0" cy="0" rx="1" ry="1" /></g><path fill="#fff9c8" fill-opacity=".501961" d="M83.116736 154.772079 57.913612 146.44079 42.273842 118.571932 100.423545 134.450498z" /><g transform="translate(78.898712 5.731794) rotate(196.351421) scale(49.824176 23.486119)"><ellipse fill="#d7f5ff" fill-opacity=".501961" cx="0" cy="0" rx="1" ry="1" /></g><g transform="translate(110.270155 54.302920) rotate(319.900817) scale(14.671226 28.872376)"><ellipse fill="#170000" fill-opacity=".501961" cx="0" cy="0" rx="1" ry="1" /></g><g transform="translate(49.352237 87.866003) rotate(231.310446) scale(38.708571 17.742319)"><ellipse fill="#b2ae73" fill-opacity=".501961" cx="0" cy="0" rx="1" ry="1" /></g></g></svg>