<svg xmlns="http://www.w3.org/2000/svg" viewBox="0 0 4450 3037"><filter id="b"><feGaussianBlur stdDeviation="12" /></filter><path d="M0 0h4450v3037H0z" fill="#5f6163" /><g filter="url(#b)" transform="scale(17.382812) translate(0.5 0.5)"><g transform="translate(114.929934 0.000000) rotate(172.590398) scale(191.296285 71.892738)"><ellipse fill="#f5ffff" fill-opacity=".501961" cx="0" cy="0" rx="1" ry="1" /></g><g transform="translate(107.945876 135.338803) rotate(270.668138) scale(56.634219 255.000000)"><ellipse fill="#000" fill-opacity=".501961" cx="0" cy="0" rx="1" ry="1" /></g><g transform="translate(184.026464 63.112897) rotate(117.963097) scale(35.862589 18.484900)"><ellipse fill="#000" fill-opacity=".501961" cx="0" cy="0" rx="1" ry="1" /></g><g transform="translate(255.000000 55.762311) rotate(339.364753) scale(58.838108 23.820337)"><ellipse fill="#d6edfc" fill-opacity=".501961" cx="0" cy="0" rx="1" ry="1" /></g><g transform="translate(223.957270 136.068142) rotate(253.260443) scale(46.863642 74.865153)"><ellipse fill="#000" fill-opacity=".501961" cx="0" cy="0" rx="1" ry="1" /></g><ellipse fill="#d7dfe9" fill-opacity=".501961" cx="125" cy="28" rx="56" ry="56" /><g transform="translate(192 50) rotate(187) scale(28 35)"><path d="M0 0h4450v3037H0z" fill="#000" /></g><g transform="translate(79.466177 103.554277) rotate(366.157938) scale(253.715916 16.502547)"><ellipse fill="#040000" fill-opacity=".501961" cx="0" cy="0" rx="1" ry="1" /></g></g></svg>