<svg xmlns="http://www.w3.org/2000/svg" viewBox="0 0 4164 2971"><filter id="b"><feGaussianBlur stdDeviation="12" /></filter><path d="M0 0h4164v2971H0z" fill="#ad8e60" /><g filter="url(#b)" transform="scale(16.265625) translate(0.5 0.5)"><g transform="translate(146.509941 150.514545) rotate(83.909969) scale(48.165545 119.928215)"><ellipse fill="#583913" fill-opacity=".501961" cx="0" cy="0" rx="1" ry="1" /></g><g transform="translate(115.600943 54.304671) rotate(101.020935) scale(38.798143 255.000000)"><ellipse fill="#f7d394" fill-opacity=".501961" cx="0" cy="0" rx="1" ry="1" /></g><g transform="translate(40.973862 110.449478) rotate(48.017876) scale(56.358461 30.401111)"><ellipse fill="#e7c697" fill-opacity=".501961" cx="0" cy="0" rx="1" ry="1" /></g><g transform="translate(142.056248 108.175543) rotate(257.700843) scale(14.972116 41.131486)"><ellipse fill="#372203" fill-opacity=".501961" cx="0" cy="0" rx="1" ry="1" /></g><ellipse fill="#150300" fill-opacity=".501961" cx="237" cy="126" rx="56" ry="14" /><path fill="#07060a" fill-opacity=".501961" d="M70.309265 161.866531-6.552554 149.452966 43.24121 173.945182 119.1955 186.59094z" /><ellipse fill="#ffc863" fill-opacity=".501961" cx="167" cy="164" rx="46" ry="7" /><ellipse fill="#000" fill-opacity=".501961" cx="133" cy="0" rx="11" ry="19" /></g></svg>