<svg xmlns="http://www.w3.org/2000/svg" viewBox="0 0 2048 1463"><filter id="b"><feGaussianBlur stdDeviation="12" /></filter><path d="M0 0h2048v1463H0z" fill="#275946" /><g filter="url(#b)" transform="scale(8.000000) translate(0.5 0.5)"><ellipse fill="#478780" fill-opacity=".501961" cx="164" cy="138" rx="82" ry="82" /><g transform="translate(26.829490 54.959840) rotate(186.386407) scale(32.430545 123.610839)"><ellipse fill="#001300" fill-opacity=".501961" cx="0" cy="0" rx="1" ry="1" /></g><g transform="translate(155.668876 106.616043) rotate(352.851290) scale(27.999609 4.395898)"><ellipse fill="#c7cfff" fill-opacity=".501961" cx="0" cy="0" rx="1" ry="1" /></g><g transform="translate(229.897550 120.804350) rotate(88.262475) scale(11.698209 63.476214)"><ellipse fill="#0691c2" fill-opacity=".501961" cx="0" cy="0" rx="1" ry="1" /></g><g transform="translate(243 41) rotate(44) scale(89 44)"><path d="M0 0h2048v1463H0z" fill="#062f00" /></g><ellipse fill="#103f19" fill-opacity=".501961" cx="63" cy="41" rx="188" ry="19" /><ellipse fill="#4a7e42" fill-opacity=".501961" cx="177" cy="161" rx="130" ry="36" /><g transform="translate(94.102283 87.104817) rotate(265.590250) scale(29.182305 57.917302)"><ellipse fill="#133b60" fill-opacity=".501961" cx="0" cy="0" rx="1" ry="1" /></g></g></svg>