<svg xmlns="http://www.w3.org/2000/svg" viewBox="0 0 2048 1463"><filter id="b"><feGaussianBlur stdDeviation="12" /></filter><path d="M0 0h2048v1463H0z" fill="#647e85" /><g filter="url(#b)" transform="scale(8.000000) translate(0.5 0.5)"><g transform="translate(109.972924 17.984291) rotate(-3.875701) scale(237.924771 37.269221)"><ellipse fill="#f1ffff" fill-opacity=".501961" cx="0" cy="0" rx="1" ry="1" /></g><g transform="translate(124.220619 177.527291) rotate(436.973262) scale(52.649069 255.000000)"><ellipse fill="#0a190f" fill-opacity=".501961" cx="0" cy="0" rx="1" ry="1" /></g><g transform="translate(124.053647 39.980912) rotate(170.763299) scale(50.082074 24.754655)"><ellipse fill="#243e4f" fill-opacity=".501961" cx="0" cy="0" rx="1" ry="1" /></g><ellipse fill="#f7ffff" fill-opacity=".501961" cx="47" cy="20" rx="46" ry="46" /><ellipse fill="#001800" fill-opacity=".501961" cx="255" cy="93" rx="41" ry="50" /><ellipse fill="#5d90a3" fill-opacity=".501961" cx="125" cy="103" rx="57" ry="57" /><g transform="translate(206.602095 16.316919) rotate(194.953284) scale(60.416975 28.146492)"><ellipse fill="#d2efff" fill-opacity=".501961" cx="0" cy="0" rx="1" ry="1" /></g><g transform="translate(23 80) rotate(135) scale(34 47)"><path d="M0 0h2048v1463H0z" fill="#08220f" /></g></g></svg>