<svg xmlns="http://www.w3.org/2000/svg" viewBox="0 0 4597 3448"><filter id="b"><feGaussianBlur stdDeviation="12" /></filter><path d="M0 0h4597v3448H0z" fill="#565655" /><g filter="url(#b)" transform="scale(17.957031) translate(0.5 0.5)"><g transform="translate(245.465553 0.000000) rotate(109.758367) scale(64.418109 24.137010)"><ellipse fill="#fff" fill-opacity=".501961" cx="0" cy="0" rx="1" ry="1" /></g><g transform="translate(137.797596 123.528171) rotate(183.880771) scale(20.251364 29.605960)"><ellipse fill="#f2ffff" fill-opacity=".501961" cx="0" cy="0" rx="1" ry="1" /></g><g transform="translate(12.223892 55.787534) rotate(242.068350) scale(87.827597 46.386031)"><ellipse fill="#1c0b06" fill-opacity=".501961" cx="0" cy="0" rx="1" ry="1" /></g><ellipse fill="#000" fill-opacity=".501961" cx="237" cy="103" rx="32" ry="22" /><g transform="translate(241.766296 8.907925) rotate(240.739419) scale(29.406474 25.647378)"><ellipse fill="#fff" fill-opacity=".501961" cx="0" cy="0" rx="1" ry="1" /></g><path fill="#141204" fill-opacity=".501961" d="M153 66l-53 63-4-91z" /><g transform="translate(155 100) rotate(-23) scale(28 10)"><path d="M0 0h4597v3448H0z" fill="#faffff" /></g><ellipse fill="#5a7998" fill-opacity=".501961" cx="200" cy="170" rx="41" ry="40" /></g></svg>