<svg xmlns="http://www.w3.org/2000/svg" viewBox="0 0 3759 2819"><filter id="b"><feGaussianBlur stdDeviation="12" /></filter><path d="M0 0h3759v2819H0z" fill="#7a7d75" /><g filter="url(#b)" transform="scale(14.683594) translate(0.5 0.5)"><g transform="translate(45.891410 21.705957) rotate(280.028788) scale(36.097335 143.057867)"><ellipse fill="#fff" fill-opacity=".501961" cx="0" cy="0" rx="1" ry="1" /></g><g transform="translate(241.250483 79.269446) rotate(180.784773) scale(71.126886 97.577265)"><ellipse fill="#000" fill-opacity=".501961" cx="0" cy="0" rx="1" ry="1" /></g><g transform="translate(84.464789 172.205236) rotate(-7.770958) scale(97.784223 36.406120)"><ellipse fill="#fff2e4" fill-opacity=".501961" cx="0" cy="0" rx="1" ry="1" /></g><ellipse fill="#0f1c0d" fill-opacity=".501961" cx="0" cy="100" rx="245" ry="32" /><g transform="translate(73.083415 30.258894) rotate(192.157475) scale(136.762032 22.734034)"><ellipse fill="#fff" fill-opacity=".501961" cx="0" cy="0" rx="1" ry="1" /></g><ellipse fill="#fff" fill-opacity=".501961" cx="114" cy="53" rx="14" ry="35" /><g transform="translate(163.579080 5.576489) rotate(344.396533) scale(49.330341 14.050185)"><ellipse fill="#0f2623" fill-opacity=".501961" cx="0" cy="0" rx="1" ry="1" /></g><g transform="translate(234.609995 51.576111) rotate(349.188236) scale(41.475730 99.115081)"><ellipse fill="#0d1504" fill-opacity=".501961" cx="0" cy="0" rx="1" ry="1" /></g></g></svg>