<svg xmlns="http://www.w3.org/2000/svg" viewBox="0 0 4608 3456"><filter id="b"><feGaussianBlur stdDeviation="12" /></filter><path d="M0 0h4608v3456H0z" fill="#9da39a" /><g filter="url(#b)" transform="scale(18.000000) translate(0.5 0.5)"><g transform="translate(157.520145 103.729193) rotate(268.764239) scale(29.991576 225.341380)"><ellipse fill="#10130e" fill-opacity=".501961" cx="0" cy="0" rx="1" ry="1" /></g><g transform="translate(72.836500 23.626430) rotate(341.320734) scale(255.000000 40.370376)"><ellipse fill="#f1ffff" fill-opacity=".501961" cx="0" cy="0" rx="1" ry="1" /></g><path fill="#fffff1" fill-opacity=".501961" d="M130 207l141-72-287 5z" /><g transform="translate(255.000000 45.488827) rotate(176.972822) scale(37.236296 52.782751)"><ellipse fill="#010" fill-opacity=".501961" cx="0" cy="0" rx="1" ry="1" /></g><g transform="translate(93.773852 69.330746) rotate(140.507079) scale(37.182318 14.999750)"><ellipse fill="#142900" fill-opacity=".501961" cx="0" cy="0" rx="1" ry="1" /></g><g transform="translate(178.417035 83.949194) rotate(363.227428) scale(59.745206 36.859932)"><ellipse fill="#6384a6" fill-opacity=".501961" cx="0" cy="0" rx="1" ry="1" /></g><ellipse fill="#ffe7ca" fill-opacity=".501961" cx="109" cy="182" rx="176" ry="50" /><ellipse fill="#b7f8ff" fill-opacity=".501961" cx="177" cy="20" rx="45" ry="28" /></g></svg>