<svg xmlns="http://www.w3.org/2000/svg" viewBox="0 0 4608 3456"><filter id="b"><feGaussianBlur stdDeviation="12" /></filter><path d="M0 0h4608v3456H0z" fill="#766552" /><g filter="url(#b)" transform="scale(18.000000) translate(0.5 0.5)"><g transform="translate(135 116) rotate(271) scale(56 67)"><path d="M0 0h4608v3456H0z" fill="#ff0001" /></g><ellipse fill="#000" fill-opacity=".501961" cx="17" cy="76" rx="28" ry="91" /><g transform="translate(80.476319 59.112625) rotate(108.027199) scale(63.082510 29.371032)"><ellipse fill="#dcf0d5" fill-opacity=".501961" cx="0" cy="0" rx="1" ry="1" /></g><path fill="#d3d1e0" fill-opacity=".501961" d="M0 164l95 43 149-35z" /><ellipse fill="#002d00" fill-opacity=".501961" cx="222" cy="74" rx="76" ry="25" /><path fill="#fff" fill-opacity=".501961" d="M271-16 208 47l2-40z" /><g transform="translate(130.298686 110.381215) rotate(63.775251) scale(34.536371 27.626931)"><ellipse fill="#ff0026" fill-opacity=".501961" cx="0" cy="0" rx="1" ry="1" /></g><g transform="translate(183 138) rotate(185) scale(68 17)"><path d="M0 0h4608v3456H0z" fill="#ff0001" /></g></g></svg>